<svg width="100" height="22" viewBox="0 0 100 22" fill="none" xmlns="http://www.w3.org/2000/svg">
<path d="M0 21.1723V0.827697H13.9608V4.5143H4.24298V9.67555H12.5921V13.3622H4.24298V21.1723H0Z" fill="white"/>
<path d="M18.5981 21.5C17.5214 21.5 16.5907 21.327 15.806 20.9811C15.0212 20.6352 14.419 20.1437 13.9993 19.5065C13.5795 18.8511 13.3697 18.0774 13.3697 17.1853C13.3697 16.3479 13.5613 15.6105 13.9445 14.9733C14.3278 14.3179 14.9117 13.7718 15.6965 13.3349C16.4994 12.8979 17.494 12.5884 18.6802 12.4064L23.2517 11.6691V14.673L19.4193 15.3557C18.8353 15.4649 18.3882 15.656 18.078 15.9291C17.7678 16.184 17.6126 16.5572 17.6126 17.0488C17.6126 17.5039 17.786 17.8589 18.1327 18.1138C18.4795 18.3687 18.9083 18.4961 19.4193 18.4961C20.0946 18.4961 20.6877 18.3505 21.1986 18.0592C21.7096 17.7679 22.102 17.3765 22.3757 16.8849C22.6677 16.3752 22.8137 15.8199 22.8137 15.2191V11.3414C22.8137 10.777 22.5856 10.3036 22.1294 9.92133C21.6914 9.53901 21.0891 9.34785 20.3227 9.34785C19.5927 9.34785 18.9448 9.54811 18.3791 9.94863C17.8316 10.3492 17.4301 10.8771 17.1747 11.5325L13.8898 9.97594C14.1818 9.13849 14.6471 8.41938 15.2858 7.8186C15.9246 7.21782 16.691 6.75358 17.5853 6.42588C18.4795 6.09818 19.4558 5.93433 20.5143 5.93433C21.7735 5.93433 22.8867 6.1619 23.8539 6.61703C24.8211 7.07217 25.5694 7.70936 26.0986 8.52861C26.6461 9.32965 26.9198 10.2672 26.9198 11.3414V21.1723H23.0875V18.7692L24.0182 18.6053C23.5802 19.2607 23.0966 19.8069 22.5673 20.2438C22.0381 20.6625 21.445 20.972 20.788 21.1723C20.1311 21.3908 19.4011 21.5 18.5981 21.5Z" fill="white"/>
<path d="M28.6993 21.1723V6.26203H32.5317V9.8394L32.258 9.32055C32.5865 8.06437 33.1248 7.21782 33.873 6.78088C34.6395 6.32575 35.5429 6.09818 36.5831 6.09818H37.459V9.64824H36.1725C35.1688 9.64824 34.3567 9.95774 33.7362 10.5767C33.1157 11.1775 32.8055 12.0332 32.8055 13.1437V21.1723H28.6993Z" fill="white"/>
<path d="M38.0268 21.1723V0.5H42.133V13.7445L40.6 13.2529L47.1972 6.26203H52.2614L46.8413 12.2698L52.234 21.1723H47.5804L43.0637 13.6079L45.4452 13.0072L40.8737 17.9772L42.133 15.6014V21.1723H38.0268Z" fill="white"/>
<path d="M52.8345 21.1723V0.5H56.9406V12.461L56.4479 8.55592C56.7946 7.66385 57.3512 7.00845 58.1177 6.58973C58.9024 6.1528 59.8149 5.93433 60.8551 5.93433C61.9866 5.93433 62.972 6.171 63.8115 6.64434C64.6692 7.11769 65.3353 7.78218 65.8098 8.63784C66.2843 9.47529 66.5215 10.4584 66.5215 11.5871V21.1723H62.4154V12.461C62.4154 11.8784 62.2968 11.3778 62.0596 10.959C61.8406 10.5403 61.5212 10.2126 61.1015 9.97594C60.7 9.73927 60.2255 9.62094 59.678 9.62094C59.1488 9.62094 58.6743 9.73927 58.2546 9.97594C57.8348 10.2126 57.5063 10.5403 57.2691 10.959C57.0501 11.3778 56.9406 11.8784 56.9406 12.461V21.1723H52.8345Z" fill="white"/>
<path d="M75.408 21.5C73.9298 21.5 72.5794 21.1632 71.3567 20.4896C70.1522 19.816 69.185 18.8966 68.455 17.7315C67.7433 16.5481 67.3875 15.21 67.3875 13.7172C67.3875 12.2061 67.7433 10.868 68.455 9.70286C69.185 8.53771 70.1522 7.61834 71.3567 6.94473C72.5794 6.27113 73.9298 5.93433 75.408 5.93433C76.8862 5.93433 78.2276 6.27113 79.432 6.94473C80.6365 7.61834 81.5946 8.53771 82.3063 9.70286C83.0363 10.868 83.4013 12.2061 83.4013 13.7172C83.4013 15.21 83.0363 16.5481 82.3063 17.7315C81.5946 18.8966 80.6365 19.816 79.432 20.4896C78.2276 21.1632 76.8862 21.5 75.408 21.5ZM75.408 17.8134C76.1563 17.8134 76.8041 17.6404 77.3516 17.2945C77.9173 16.9486 78.3553 16.4662 78.6656 15.8472C78.9941 15.2282 79.1583 14.5182 79.1583 13.7172C79.1583 12.9161 78.9941 12.2152 78.6656 11.6144C78.3553 10.9954 77.9173 10.513 77.3516 10.1671C76.8041 9.80299 76.1563 9.62094 75.408 9.62094C74.6598 9.62094 74.0029 9.80299 73.4371 10.1671C72.8714 10.513 72.4243 10.9954 72.0958 11.6144C71.7855 12.2152 71.6304 12.9161 71.6304 13.7172C71.6304 14.5182 71.7855 15.2282 72.0958 15.8472C72.4243 16.4662 72.8714 16.9486 73.4371 17.2945C74.0029 17.6404 74.6598 17.8134 75.408 17.8134Z" fill="white"/>
<path d="M91.6235 21.5C90.1636 21.5 88.8588 21.1541 87.709 20.4623C86.5593 19.7705 85.6469 18.8329 84.9716 17.6495C84.3147 16.4662 83.9862 15.1554 83.9862 13.7172C83.9862 12.2607 84.3238 10.9499 84.999 9.78479C85.6742 8.60143 86.5867 7.66385 87.7364 6.97204C88.8861 6.28023 90.1727 5.93433 91.5962 5.93433C92.6911 5.93433 93.6583 6.14369 94.4978 6.56242C95.3555 6.96294 96.0308 7.53641 96.5235 8.28283L95.8939 9.10208V0.5H100V21.1723H96.1676V18.4415L96.5509 19.288C96.0399 20.0163 95.3464 20.5715 94.4704 20.9538C93.5945 21.3179 92.6455 21.5 91.6235 21.5ZM92.1163 17.8134C92.8645 17.8134 93.5215 17.6404 94.0872 17.2945C94.6529 16.9486 95.0909 16.4662 95.4012 15.8472C95.7297 15.2282 95.8939 14.5182 95.8939 13.7172C95.8939 12.9161 95.7297 12.2061 95.4012 11.5871C95.0909 10.9681 94.6529 10.4857 94.0872 10.1398C93.5215 9.79389 92.8645 9.62094 92.1163 9.62094C91.368 9.62094 90.6928 9.80299 90.0906 10.1671C89.5066 10.513 89.0504 10.9954 88.7219 11.6144C88.3934 12.2152 88.2292 12.9161 88.2292 13.7172C88.2292 14.5182 88.3934 15.2282 88.7219 15.8472C89.0504 16.4662 89.5066 16.9486 90.0906 17.2945C90.6928 17.6404 91.368 17.8134 92.1163 17.8134Z" fill="white"/>
</svg>
