<svg width="155" height="23" viewBox="0 0 155 23" fill="none" xmlns="http://www.w3.org/2000/svg">
<circle cx="10" cy="11.5" r="10" fill="url(#paint0_linear_257_68)"/>
<path d="M28 18.6915V4.23289H38.1116V6.85291H31.0731V10.5209H37.1203V13.141H31.0731V18.6915H28Z" fill="white"/>
<path d="M41.4703 18.9244C40.6905 18.9244 40.0164 18.8015 39.448 18.5557C38.8797 18.3098 38.4435 17.9605 38.1395 17.5077C37.8355 17.0419 37.6835 16.492 37.6835 15.858C37.6835 15.2629 37.8222 14.7389 38.0998 14.286C38.3774 13.8202 38.8004 13.4321 39.3687 13.1216C39.9503 12.811 40.6707 12.5911 41.5298 12.4617L44.8409 11.9377V14.0725L42.0651 14.5577C41.6422 14.6353 41.3183 14.7712 41.0936 14.9653C40.8689 15.1464 40.7566 15.4116 40.7566 15.761C40.7566 16.0844 40.8822 16.3367 41.1333 16.5179C41.3844 16.699 41.695 16.7896 42.0651 16.7896C42.5542 16.7896 42.9838 16.6861 43.3539 16.4791C43.724 16.272 44.0082 15.9939 44.2064 15.6445C44.4179 15.2823 44.5237 14.8876 44.5237 14.4607V11.7048C44.5237 11.3037 44.3584 10.9673 44.028 10.6956C43.7108 10.4239 43.2746 10.288 42.7194 10.288C42.1907 10.288 41.7215 10.4304 41.3117 10.715C40.9152 10.9997 40.6244 11.3749 40.4394 11.8407L38.0602 10.7344C38.2716 10.1393 38.6087 9.62819 39.0713 9.20123C39.5339 8.77426 40.0891 8.44433 40.7368 8.21144C41.3844 7.97855 42.0916 7.8621 42.8582 7.8621C43.7702 7.8621 44.5765 8.02383 45.2771 8.34729C45.9776 8.67075 46.5195 9.1236 46.9028 9.70582C47.2994 10.2751 47.4976 10.9414 47.4976 11.7048V18.6915H44.7219V16.9837L45.396 16.8672C45.0788 17.333 44.7285 17.7211 44.3452 18.0317C43.9619 18.3292 43.5323 18.5492 43.0565 18.6915C42.5806 18.8468 42.0519 18.9244 41.4703 18.9244Z" fill="white"/>
<path d="M48.7865 18.6915V8.09499H51.5623V10.6374L51.364 10.2686C51.6019 9.37589 51.9918 8.77426 52.5338 8.46374C53.0889 8.14028 53.7432 7.97855 54.4966 7.97855H55.1311V10.5015H54.1992C53.4722 10.5015 52.884 10.7215 52.4346 11.1614C51.9852 11.5884 51.7605 12.1965 51.7605 12.9857V18.6915H48.7865Z" fill="white"/>
<path d="M55.5423 18.6915V4H58.5163V13.4127L57.406 13.0633L62.1842 8.09499H65.8522L61.9265 12.3647L65.8323 18.6915H62.4618L59.1904 13.3156L60.9153 12.8887L57.6043 16.4208L58.5163 14.7324V18.6915H55.5423Z" fill="white"/>
<path d="M66.2673 18.6915V4H69.2413V10.191L68.8844 9.72523C69.1355 9.09125 69.5387 8.62547 70.0938 8.32789C70.6622 8.01736 71.3231 7.8621 72.0765 7.8621C72.896 7.8621 73.6098 8.0303 74.2178 8.3667C74.839 8.7031 75.3215 9.17535 75.6651 9.78345C76.0088 10.3786 76.1806 11.0773 76.1806 11.8795V18.6915H73.2066V12.5005C73.2066 12.0865 73.1207 11.7307 72.9489 11.4331C72.7902 11.1355 72.5589 10.9026 72.2549 10.7344C71.9641 10.5662 71.6205 10.4821 71.2239 10.4821C70.8406 10.4821 70.497 10.5662 70.193 10.7344C69.8889 10.9026 69.651 11.1355 69.4792 11.4331C69.3206 11.7307 69.2413 12.0865 69.2413 12.5005V18.6915H66.2673Z" fill="white"/>
<path d="M82.617 18.9244C81.5464 18.9244 80.5682 18.6851 79.6826 18.2063C78.8103 17.7276 78.1097 17.0742 77.581 16.2462C77.0655 15.4052 76.8078 14.4542 76.8078 13.3933C76.8078 12.3194 77.0655 11.3684 77.581 10.5403C78.1097 9.71229 78.8103 9.0589 79.6826 8.58018C80.5682 8.10146 81.5464 7.8621 82.617 7.8621C83.6876 7.8621 84.6591 8.10146 85.5315 8.58018C86.4039 9.0589 87.0978 9.71229 87.6133 10.5403C88.142 11.3684 88.4064 12.3194 88.4064 13.3933C88.4064 14.4542 88.142 15.4052 87.6133 16.2462C87.0978 17.0742 86.4039 17.7276 85.5315 18.2063C84.6591 18.6851 83.6876 18.9244 82.617 18.9244ZM82.617 16.3044C83.1589 16.3044 83.6281 16.1815 84.0247 15.9356C84.4344 15.6898 84.7517 15.347 84.9764 14.907C85.2143 14.4671 85.3332 13.9625 85.3332 13.3933C85.3332 12.824 85.2143 12.3258 84.9764 11.8989C84.7517 11.459 84.4344 11.1161 84.0247 10.8703C83.6281 10.6115 83.1589 10.4821 82.617 10.4821C82.0751 10.4821 81.5992 10.6115 81.1895 10.8703C80.7797 11.1161 80.4559 11.459 80.218 11.8989C79.9933 12.3258 79.8809 12.824 79.8809 13.3933C79.8809 13.9625 79.9933 14.4671 80.218 14.907C80.4559 15.347 80.7797 15.6898 81.1895 15.9356C81.5992 16.1815 82.0751 16.3044 82.617 16.3044Z" fill="white"/>
<path d="M94.3616 18.9244C93.3042 18.9244 92.3592 18.6786 91.5264 18.1869C90.6937 17.6953 90.0328 17.0289 89.5438 16.1879C89.0679 15.347 88.83 14.4154 88.83 13.3933C88.83 12.3582 89.0745 11.4266 89.5636 10.5986C90.0526 9.75758 90.7135 9.09125 91.5463 8.59959C92.379 8.10793 93.3108 7.8621 94.3418 7.8621C95.1349 7.8621 95.8354 8.0109 96.4434 8.30848C97.0647 8.59312 97.5537 9.00068 97.9106 9.53115L97.4546 10.1134V4H100.429V18.6915H97.6529V16.7508L97.9304 17.3524C97.5603 17.8699 97.0581 18.2646 96.4236 18.5363C95.7892 18.795 95.1018 18.9244 94.3616 18.9244ZM94.7185 16.3044C95.2604 16.3044 95.7363 16.1815 96.146 15.9356C96.5558 15.6898 96.873 15.347 97.0977 14.907C97.3356 14.4671 97.4546 13.9625 97.4546 13.3933C97.4546 12.824 97.3356 12.3194 97.0977 11.8795C96.873 11.4396 96.5558 11.0967 96.146 10.8509C95.7363 10.605 95.2604 10.4821 94.7185 10.4821C94.1766 10.4821 93.6875 10.6115 93.2513 10.8703C92.8284 11.1161 92.4979 11.459 92.26 11.8989C92.0221 12.3258 91.9031 12.824 91.9031 13.3933C91.9031 13.9625 92.0221 14.4671 92.26 14.907C92.4979 15.347 92.8284 15.6898 93.2513 15.9356C93.6875 16.1815 94.1766 16.3044 94.7185 16.3044Z" fill="white"/>
<path d="M109.976 18.9244C109.051 18.9244 108.178 18.7627 107.359 18.4392C106.552 18.1028 105.852 17.6306 105.257 17.0225C104.676 16.4144 104.239 15.6963 103.949 14.8682L106.467 13.762C106.837 14.5512 107.346 15.1723 107.993 15.6251C108.654 16.078 109.381 16.3044 110.174 16.3044C110.597 16.3044 110.961 16.2397 111.265 16.1103C111.569 15.9809 111.807 15.8063 111.978 15.5863C112.15 15.3534 112.236 15.0817 112.236 14.7712C112.236 14.4348 112.13 14.1502 111.919 13.9173C111.707 13.6714 111.377 13.4774 110.928 13.335L108.033 12.4035C106.857 12.0283 105.971 11.4978 105.376 10.8121C104.781 10.1134 104.484 9.27886 104.484 8.30848C104.484 7.45455 104.695 6.70412 105.118 6.0572C105.555 5.41028 106.156 4.90569 106.923 4.54341C107.702 4.18114 108.595 4 109.599 4C110.485 4 111.304 4.14879 112.058 4.44637C112.811 4.74396 113.459 5.16445 114.001 5.70787C114.556 6.25128 114.972 6.90466 115.25 7.66803L112.752 8.77426C112.474 8.10146 112.058 7.57746 111.503 7.20225C110.947 6.8141 110.313 6.62002 109.599 6.62002C109.189 6.62002 108.826 6.68471 108.509 6.8141C108.191 6.94348 107.947 7.13109 107.775 7.37692C107.603 7.60981 107.517 7.88151 107.517 8.19203C107.517 8.52843 107.63 8.82601 107.854 9.08478C108.079 9.33061 108.416 9.52468 108.866 9.66701L111.701 10.5598C112.89 10.935 113.776 11.459 114.358 12.1318C114.952 12.8046 115.25 13.6261 115.25 14.5965C115.25 15.4375 115.025 16.1879 114.576 16.8478C114.126 17.4947 113.505 18.0058 112.712 18.381C111.932 18.7433 111.02 18.9244 109.976 18.9244Z" fill="white"/>
<path d="M119.68 18.9244C118.9 18.9244 118.226 18.8015 117.658 18.5557C117.09 18.3098 116.653 17.9605 116.349 17.5077C116.045 17.0419 115.893 16.492 115.893 15.858C115.893 15.2629 116.032 14.7389 116.31 14.286C116.587 13.8202 117.01 13.4321 117.579 13.1216C118.16 12.811 118.881 12.5911 119.74 12.4617L123.051 11.9377V14.0725L120.275 14.5577C119.852 14.6353 119.528 14.7712 119.304 14.9653C119.079 15.1464 118.967 15.4116 118.967 15.761C118.967 16.0844 119.092 16.3367 119.343 16.5179C119.594 16.699 119.905 16.7896 120.275 16.7896C120.764 16.7896 121.194 16.6861 121.564 16.4791C121.934 16.272 122.218 15.9939 122.416 15.6445C122.628 15.2823 122.734 14.8876 122.734 14.4607V11.7048C122.734 11.3037 122.568 10.9673 122.238 10.6956C121.921 10.4239 121.484 10.288 120.929 10.288C120.401 10.288 119.931 10.4304 119.522 10.715C119.125 10.9997 118.834 11.3749 118.649 11.8407L116.27 10.7344C116.482 10.1393 116.819 9.62819 117.281 9.20123C117.744 8.77426 118.299 8.44433 118.947 8.21144C119.594 7.97855 120.302 7.8621 121.068 7.8621C121.98 7.8621 122.786 8.02383 123.487 8.34729C124.188 8.67075 124.729 9.1236 125.113 9.70582C125.509 10.2751 125.708 10.9414 125.708 11.7048V18.6915H122.932V16.9837L123.606 16.8672C123.289 17.333 122.938 17.7211 122.555 18.0317C122.172 18.3292 121.742 18.5492 121.266 18.6915C120.791 18.8468 120.262 18.9244 119.68 18.9244Z" fill="white"/>
<path d="M128.682 23C128.364 23 128.054 22.9741 127.75 22.9224C127.459 22.8706 127.201 22.7865 126.977 22.6701V20.2829C127.162 20.3347 127.38 20.38 127.631 20.4188C127.882 20.4576 128.113 20.477 128.325 20.477C128.906 20.477 129.323 20.3412 129.574 20.0695C129.825 19.7978 130.03 19.4872 130.189 19.1379L130.922 17.4883L130.882 19.9142L126.124 8.09499H129.316L132.469 16.4985H131.279L134.431 8.09499H137.624L132.984 19.6813C132.693 20.4188 132.336 21.0334 131.913 21.525C131.49 22.0167 131.008 22.3854 130.466 22.6313C129.937 22.8771 129.343 23 128.682 23Z" fill="white"/>
<path d="M142.933 18.9244C141.876 18.9244 140.931 18.6786 140.098 18.1869C139.265 17.6953 138.604 17.0289 138.115 16.1879C137.639 15.347 137.401 14.4154 137.401 13.3933C137.401 12.3582 137.646 11.4266 138.135 10.5986C138.624 9.75758 139.285 9.09125 140.118 8.59959C140.95 8.10793 141.882 7.8621 142.913 7.8621C143.706 7.8621 144.407 8.0109 145.015 8.30848C145.636 8.59312 146.125 9.00068 146.482 9.53115L146.026 10.1134V4H149V18.6915H146.224V16.7508L146.502 17.3524C146.132 17.8699 145.629 18.2646 144.995 18.5363C144.361 18.795 143.673 18.9244 142.933 18.9244ZM143.29 16.3044C143.832 16.3044 144.308 16.1815 144.717 15.9356C145.127 15.6898 145.444 15.347 145.669 14.907C145.907 14.4671 146.026 13.9625 146.026 13.3933C146.026 12.824 145.907 12.3194 145.669 11.8795C145.444 11.4396 145.127 11.0967 144.717 10.8509C144.308 10.605 143.832 10.4821 143.29 10.4821C142.748 10.4821 142.259 10.6115 141.823 10.8703C141.4 11.1161 141.069 11.459 140.831 11.8989C140.593 12.3258 140.475 12.824 140.475 13.3933C140.475 13.9625 140.593 14.4671 140.831 14.907C141.069 15.347 141.4 15.6898 141.823 15.9356C142.259 16.1815 142.748 16.3044 143.29 16.3044Z" fill="white"/>
<defs>
<linearGradient id="paint0_linear_257_68" x1="16.4" y1="3.3" x2="10" y2="21.5" gradientUnits="userSpaceOnUse">
<stop stop-color="#F1CB00"/>
<stop offset="1" stop-color="#FF1F00"/>
</linearGradient>
</defs>
</svg>
