<svg width="192" height="21" viewBox="0 0 192 21" fill="none" xmlns="http://www.w3.org/2000/svg">
<circle cx="10" cy="10.5" r="10" fill="url(#paint0_linear_257_138)"/>
<path d="M28 16.8242V3.41424H36.946V5.57424H30.448V9.28224H36.136V11.4422H30.448V16.8242H28Z" fill="white"/>
<path d="M40.5546 17.0402C39.8706 17.0402 39.2766 16.9262 38.7726 16.6982C38.2686 16.4702 37.8786 16.1462 37.6026 15.7262C37.3266 15.2942 37.1886 14.7962 37.1886 14.2322C37.1886 13.6922 37.3086 13.2122 37.5486 12.7922C37.7886 12.3602 38.1606 12.0002 38.6646 11.7122C39.1686 11.4242 39.8046 11.2202 40.5726 11.1002L43.7766 10.5782V12.3782L41.0226 12.8462C40.5546 12.9302 40.2066 13.0802 39.9786 13.2962C39.7506 13.5122 39.6366 13.7942 39.6366 14.1422C39.6366 14.4782 39.7626 14.7482 40.0146 14.9522C40.2786 15.1442 40.6026 15.2402 40.9866 15.2402C41.4786 15.2402 41.9106 15.1382 42.2826 14.9342C42.6666 14.7182 42.9606 14.4242 43.1646 14.0522C43.3806 13.6802 43.4886 13.2722 43.4886 12.8282V10.3082C43.4886 9.88824 43.3206 9.54024 42.9846 9.26424C42.6606 8.97624 42.2286 8.83224 41.6886 8.83224C41.1846 8.83224 40.7346 8.97024 40.3386 9.24624C39.9546 9.51024 39.6726 9.86424 39.4926 10.3082L37.5666 9.37224C37.7586 8.85624 38.0586 8.41224 38.4666 8.04024C38.8866 7.65624 39.3786 7.35624 39.9426 7.14024C40.5066 6.92424 41.1186 6.81624 41.7786 6.81624C42.5826 6.81624 43.2906 6.96624 43.9026 7.26624C44.5146 7.55424 44.9886 7.96224 45.3246 8.49024C45.6726 9.00624 45.8466 9.61224 45.8466 10.3082V16.8242H43.6146V15.1502L44.1186 15.1142C43.8666 15.5342 43.5666 15.8882 43.2186 16.1762C42.8706 16.4522 42.4746 16.6682 42.0306 16.8242C41.5866 16.9682 41.0946 17.0402 40.5546 17.0402Z" fill="white"/>
<path d="M47.666 16.8242V7.03224H49.88V9.21024L49.7 8.88624C49.928 8.15424 50.282 7.64424 50.762 7.35624C51.254 7.06824 51.842 6.92424 52.526 6.92424H53.102V9.01224H52.256C51.584 9.01224 51.044 9.22224 50.636 9.64224C50.228 10.0502 50.024 10.6262 50.024 11.3702V16.8242H47.666Z" fill="white"/>
<path d="M54.0384 16.8242V3.19824H56.3964V12.1262L55.4964 11.8562L60.1044 7.03224H63.0384L59.4204 10.9742L63.1104 16.8242H60.4104L57.2064 11.7482L58.6104 11.4602L55.6584 14.6282L56.3964 13.1882V16.8242H54.0384Z" fill="white"/>
<path d="M64.0671 16.8242V3.19824H66.4251V8.95824L66.1011 8.61624C66.3291 8.02824 66.7011 7.58424 67.2171 7.28424C67.7451 6.97224 68.3571 6.81624 69.0531 6.81624C69.7731 6.81624 70.4091 6.97224 70.9611 7.28424C71.5251 7.59624 71.9631 8.03424 72.2751 8.59824C72.5871 9.15024 72.7431 9.79224 72.7431 10.5242V16.8242H70.3851V11.0822C70.3851 10.6502 70.3011 10.2782 70.1331 9.96624C69.9651 9.65424 69.7311 9.41424 69.4311 9.24624C69.1431 9.06624 68.8011 8.97624 68.4051 8.97624C68.0211 8.97624 67.6791 9.06624 67.3791 9.24624C67.0791 9.41424 66.8451 9.65424 66.6771 9.96624C66.5091 10.2782 66.4251 10.6502 66.4251 11.0822V16.8242H64.0671Z" fill="white"/>
<path d="M79.165 17.0402C78.205 17.0402 77.329 16.8182 76.537 16.3742C75.757 15.9302 75.133 15.3242 74.665 14.5562C74.209 13.7882 73.981 12.9122 73.981 11.9282C73.981 10.9442 74.209 10.0682 74.665 9.30024C75.133 8.53224 75.757 7.92624 76.537 7.48224C77.317 7.03824 78.193 6.81624 79.165 6.81624C80.125 6.81624 80.995 7.03824 81.775 7.48224C82.555 7.92624 83.173 8.53224 83.629 9.30024C84.097 10.0562 84.331 10.9322 84.331 11.9282C84.331 12.9122 84.097 13.7882 83.629 14.5562C83.161 15.3242 82.537 15.9302 81.757 16.3742C80.977 16.8182 80.113 17.0402 79.165 17.0402ZM79.165 14.8802C79.693 14.8802 80.155 14.7542 80.551 14.5022C80.959 14.2502 81.277 13.9022 81.505 13.4582C81.745 13.0022 81.865 12.4922 81.865 11.9282C81.865 11.3522 81.745 10.8482 81.505 10.4162C81.277 9.97224 80.959 9.62424 80.551 9.37224C80.155 9.10824 79.693 8.97624 79.165 8.97624C78.625 8.97624 78.151 9.10824 77.743 9.37224C77.335 9.62424 77.011 9.97224 76.771 10.4162C76.543 10.8482 76.429 11.3522 76.429 11.9282C76.429 12.4922 76.543 13.0022 76.771 13.4582C77.011 13.9022 77.335 14.2502 77.743 14.5022C78.151 14.7542 78.625 14.8802 79.165 14.8802Z" fill="white"/>
<path d="M90.3132 17.0402C89.3652 17.0402 88.5192 16.8182 87.7752 16.3742C87.0312 15.9182 86.4432 15.3002 86.0112 14.5202C85.5792 13.7402 85.3632 12.8762 85.3632 11.9282C85.3632 10.9682 85.5792 10.1042 86.0112 9.33624C86.4432 8.56824 87.0312 7.95624 87.7752 7.50024C88.5312 7.04424 89.3712 6.81624 90.2952 6.81624C91.0392 6.81624 91.6992 6.96624 92.2752 7.26624C92.8632 7.55424 93.3252 7.96224 93.6612 8.49024L93.3012 8.97624V3.19824H95.6592V16.8242H93.4272V14.9342L93.6792 15.4022C93.3432 15.9302 92.8752 16.3382 92.2752 16.6262C91.6752 16.9022 91.0212 17.0402 90.3132 17.0402ZM90.5652 14.8802C91.1052 14.8802 91.5792 14.7542 91.9872 14.5022C92.3952 14.2502 92.7132 13.9022 92.9412 13.4582C93.1812 13.0142 93.3012 12.5042 93.3012 11.9282C93.3012 11.3642 93.1812 10.8602 92.9412 10.4162C92.7132 9.96024 92.3952 9.60624 91.9872 9.35424C91.5792 9.10224 91.1052 8.97624 90.5652 8.97624C90.0372 8.97624 89.5632 9.10824 89.1432 9.37224C88.7232 9.62424 88.3932 9.97224 88.1532 10.4162C87.9252 10.8482 87.8112 11.3522 87.8112 11.9282C87.8112 12.5042 87.9252 13.0142 88.1532 13.4582C88.3932 13.9022 88.7232 14.2502 89.1432 14.5022C89.5632 14.7542 90.0372 14.8802 90.5652 14.8802Z" fill="white"/>
<path d="M105.318 17.0402C104.466 17.0402 103.674 16.8842 102.942 16.5722C102.222 16.2602 101.598 15.8282 101.07 15.2762C100.554 14.7122 100.176 14.0582 99.9362 13.3142L101.97 12.4322C102.294 13.2002 102.762 13.8062 103.374 14.2502C103.986 14.6822 104.676 14.8982 105.444 14.8982C105.876 14.8982 106.248 14.8322 106.56 14.7002C106.884 14.5562 107.13 14.3642 107.298 14.1242C107.478 13.8842 107.568 13.5962 107.568 13.2602C107.568 12.8642 107.448 12.5402 107.208 12.2882C106.98 12.0242 106.632 11.8202 106.164 11.6762L103.59 10.8482C102.546 10.5242 101.76 10.0382 101.232 9.39024C100.704 8.74224 100.44 7.98024 100.44 7.10424C100.44 6.33624 100.626 5.65824 100.998 5.07024C101.382 4.48224 101.91 4.02624 102.582 3.70224C103.266 3.36624 104.046 3.19824 104.922 3.19824C105.726 3.19824 106.464 3.34224 107.136 3.63024C107.808 3.90624 108.384 4.29624 108.864 4.80024C109.356 5.29224 109.722 5.87424 109.962 6.54624L107.946 7.44624C107.682 6.77424 107.286 6.25824 106.758 5.89824C106.23 5.52624 105.618 5.34024 104.922 5.34024C104.514 5.34024 104.154 5.41224 103.842 5.55624C103.53 5.68824 103.284 5.88024 103.104 6.13224C102.936 6.37224 102.852 6.66024 102.852 6.99624C102.852 7.36824 102.972 7.69824 103.212 7.98624C103.452 8.26224 103.818 8.47824 104.31 8.63424L106.776 9.40824C107.844 9.75624 108.642 10.2362 109.17 10.8482C109.71 11.4602 109.98 12.2162 109.98 13.1162C109.98 13.8842 109.782 14.5622 109.386 15.1502C108.99 15.7382 108.444 16.2002 107.748 16.5362C107.052 16.8722 106.242 17.0402 105.318 17.0402Z" fill="white"/>
<path d="M114.509 17.0402C113.825 17.0402 113.231 16.9262 112.727 16.6982C112.223 16.4702 111.833 16.1462 111.557 15.7262C111.281 15.2942 111.143 14.7962 111.143 14.2322C111.143 13.6922 111.263 13.2122 111.503 12.7922C111.743 12.3602 112.115 12.0002 112.619 11.7122C113.123 11.4242 113.759 11.2202 114.527 11.1002L117.731 10.5782V12.3782L114.977 12.8462C114.509 12.9302 114.161 13.0802 113.933 13.2962C113.705 13.5122 113.591 13.7942 113.591 14.1422C113.591 14.4782 113.717 14.7482 113.969 14.9522C114.233 15.1442 114.557 15.2402 114.941 15.2402C115.433 15.2402 115.865 15.1382 116.237 14.9342C116.621 14.7182 116.915 14.4242 117.119 14.0522C117.335 13.6802 117.443 13.2722 117.443 12.8282V10.3082C117.443 9.88824 117.275 9.54024 116.939 9.26424C116.615 8.97624 116.183 8.83224 115.643 8.83224C115.139 8.83224 114.689 8.97024 114.293 9.24624C113.909 9.51024 113.627 9.86424 113.447 10.3082L111.521 9.37224C111.713 8.85624 112.013 8.41224 112.421 8.04024C112.841 7.65624 113.333 7.35624 113.897 7.14024C114.461 6.92424 115.073 6.81624 115.733 6.81624C116.537 6.81624 117.245 6.96624 117.857 7.26624C118.469 7.55424 118.943 7.96224 119.279 8.49024C119.627 9.00624 119.801 9.61224 119.801 10.3082V16.8242H117.569V15.1502L118.073 15.1142C117.821 15.5342 117.521 15.8882 117.173 16.1762C116.825 16.4522 116.429 16.6682 115.985 16.8242C115.541 16.9682 115.049 17.0402 114.509 17.0402Z" fill="white"/>
<path d="M122.808 20.8022C122.544 20.8022 122.286 20.7782 122.034 20.7302C121.782 20.6942 121.554 20.6282 121.35 20.5322V18.5522C121.506 18.5882 121.692 18.6242 121.908 18.6602C122.136 18.6962 122.346 18.7142 122.538 18.7142C123.078 18.7142 123.468 18.5882 123.708 18.3362C123.96 18.0842 124.182 17.7542 124.374 17.3462L125.022 15.8342L124.986 17.8142L120.72 7.03224H123.258L126.246 14.9882H125.346L128.316 7.03224H130.872L126.606 17.8142C126.354 18.4502 126.048 18.9902 125.688 19.4342C125.328 19.8782 124.908 20.2142 124.428 20.4422C123.96 20.6822 123.42 20.8022 122.808 20.8022Z" fill="white"/>
<path d="M136.185 17.0402C135.237 17.0402 134.391 16.8182 133.647 16.3742C132.903 15.9182 132.315 15.3002 131.883 14.5202C131.451 13.7402 131.235 12.8762 131.235 11.9282C131.235 10.9682 131.451 10.1042 131.883 9.33624C132.315 8.56824 132.903 7.95624 133.647 7.50024C134.403 7.04424 135.243 6.81624 136.167 6.81624C136.911 6.81624 137.571 6.96624 138.147 7.26624C138.735 7.55424 139.197 7.96224 139.533 8.49024L139.173 8.97624V3.19824H141.531V16.8242H139.299V14.9342L139.551 15.4022C139.215 15.9302 138.747 16.3382 138.147 16.6262C137.547 16.9022 136.893 17.0402 136.185 17.0402ZM136.437 14.8802C136.977 14.8802 137.451 14.7542 137.859 14.5022C138.267 14.2502 138.585 13.9022 138.813 13.4582C139.053 13.0142 139.173 12.5042 139.173 11.9282C139.173 11.3642 139.053 10.8602 138.813 10.4162C138.585 9.96024 138.267 9.60624 137.859 9.35424C137.451 9.10224 136.977 8.97624 136.437 8.97624C135.909 8.97624 135.435 9.10824 135.015 9.37224C134.595 9.62424 134.265 9.97224 134.025 10.4162C133.797 10.8482 133.683 11.3522 133.683 11.9282C133.683 12.5042 133.797 13.0142 134.025 13.4582C134.265 13.9022 134.595 14.2502 135.015 14.5022C135.435 14.7542 135.909 14.8802 136.437 14.8802Z" fill="white"/>
<path d="M146.857 17.0402C146.101 17.0402 145.441 16.8722 144.877 16.5362C144.325 16.2002 143.899 15.7322 143.599 15.1322C143.311 14.5322 143.167 13.8302 143.167 13.0262V7.03224H145.525V12.8282C145.525 13.2362 145.603 13.5962 145.759 13.9082C145.927 14.2082 146.161 14.4482 146.461 14.6282C146.773 14.7962 147.121 14.8802 147.505 14.8802C147.889 14.8802 148.231 14.7962 148.531 14.6282C148.831 14.4482 149.065 14.2022 149.233 13.8902C149.401 13.5782 149.485 13.2062 149.485 12.7742V7.03224H151.843V16.8242H149.611V14.8982L149.809 15.2402C149.581 15.8402 149.203 16.2902 148.675 16.5902C148.159 16.8902 147.553 17.0402 146.857 17.0402Z" fill="white"/>
<path d="M153.675 16.8242V3.19824H156.033V16.8242H153.675Z" fill="white"/>
<path d="M157.85 16.8242V3.19824H160.208V16.8242H157.85Z" fill="white"/>
<path d="M164.995 17.0402C164.311 17.0402 163.717 16.9262 163.213 16.6982C162.709 16.4702 162.319 16.1462 162.043 15.7262C161.767 15.2942 161.629 14.7962 161.629 14.2322C161.629 13.6922 161.749 13.2122 161.989 12.7922C162.229 12.3602 162.601 12.0002 163.105 11.7122C163.609 11.4242 164.245 11.2202 165.013 11.1002L168.217 10.5782V12.3782L165.463 12.8462C164.995 12.9302 164.647 13.0802 164.419 13.2962C164.191 13.5122 164.077 13.7942 164.077 14.1422C164.077 14.4782 164.203 14.7482 164.455 14.9522C164.719 15.1442 165.043 15.2402 165.427 15.2402C165.919 15.2402 166.351 15.1382 166.723 14.9342C167.107 14.7182 167.401 14.4242 167.605 14.0522C167.821 13.6802 167.929 13.2722 167.929 12.8282V10.3082C167.929 9.88824 167.761 9.54024 167.425 9.26424C167.101 8.97624 166.669 8.83224 166.129 8.83224C165.625 8.83224 165.175 8.97024 164.779 9.24624C164.395 9.51024 164.113 9.86424 163.933 10.3082L162.007 9.37224C162.199 8.85624 162.499 8.41224 162.907 8.04024C163.327 7.65624 163.819 7.35624 164.383 7.14024C164.947 6.92424 165.559 6.81624 166.219 6.81624C167.023 6.81624 167.731 6.96624 168.343 7.26624C168.955 7.55424 169.429 7.96224 169.765 8.49024C170.113 9.00624 170.287 9.61224 170.287 10.3082V16.8242H168.055V15.1502L168.559 15.1142C168.307 15.5342 168.007 15.8882 167.659 16.1762C167.311 16.4522 166.915 16.6682 166.471 16.8242C166.027 16.9682 165.535 17.0402 164.995 17.0402Z" fill="white"/>
<path d="M176.75 17.0402C175.742 17.0402 174.86 16.8122 174.104 16.3562C173.348 15.9002 172.76 15.2822 172.34 14.5022C171.92 13.7222 171.71 12.8582 171.71 11.9102C171.71 10.9262 171.92 10.0562 172.34 9.30024C172.772 8.53224 173.354 7.92624 174.086 7.48224C174.83 7.03824 175.658 6.81624 176.57 6.81624C177.338 6.81624 178.01 6.94224 178.586 7.19424C179.174 7.44624 179.672 7.79424 180.08 8.23824C180.488 8.68224 180.8 9.19224 181.016 9.76824C181.232 10.3322 181.34 10.9442 181.34 11.6042C181.34 11.7722 181.328 11.9462 181.304 12.1262C181.292 12.3062 181.262 12.4622 181.214 12.5942H173.654V10.7942H179.882L178.766 11.6402C178.874 11.0882 178.844 10.5962 178.676 10.1642C178.52 9.73224 178.256 9.39024 177.884 9.13824C177.524 8.88624 177.086 8.76024 176.57 8.76024C176.078 8.76024 175.64 8.88624 175.256 9.13824C174.872 9.37824 174.578 9.73824 174.374 10.2182C174.182 10.6862 174.11 11.2562 174.158 11.9282C174.11 12.5282 174.188 13.0622 174.392 13.5302C174.608 13.9862 174.92 14.3402 175.328 14.5922C175.748 14.8442 176.228 14.9702 176.768 14.9702C177.308 14.9702 177.764 14.8562 178.136 14.6282C178.52 14.4002 178.82 14.0942 179.036 13.7102L180.944 14.6462C180.752 15.1142 180.452 15.5282 180.044 15.8882C179.636 16.2482 179.15 16.5302 178.586 16.7342C178.034 16.9382 177.422 17.0402 176.75 17.0402Z" fill="white"/>
<path d="M185.544 16.8242L181.692 7.03224H184.266L187.056 14.7362H186.102L188.91 7.03224H191.484L187.632 16.8242H185.544Z" fill="white"/>
<defs>
<linearGradient id="paint0_linear_257_138" x1="16.4" y1="2.3" x2="10" y2="20.5" gradientUnits="userSpaceOnUse">
<stop stop-color="#F1CB00"/>
<stop offset="1" stop-color="#FF1F00"/>
</linearGradient>
</defs>
</svg>
