<svg width="0" height="0" class="hidden">
  <symbol fill="none" xmlns="http://www.w3.org/2000/svg" viewBox="0 0 177 28" id="logo">
    <path d="M0 21.6507V0.343206H14.1886V4.20429H4.31222V9.60981H12.7975V13.4709H4.31222V21.6507H0Z" fill="currentColor"></path>
    <path d="M18.9016 21.9939C17.8073 21.9939 16.8614 21.8127 16.0639 21.4505C15.2663 21.0882 14.6543 20.5734 14.2277 19.906C13.8011 19.2196 13.5878 18.4093 13.5878 17.475C13.5878 16.5979 13.7826 15.8257 14.1721 15.1583C14.5616 14.4719 15.1551 13.8999 15.9526 13.4423C16.7687 12.9847 17.7795 12.6605 18.9851 12.4699L23.6311 11.6977V14.8437L19.7362 15.5587C19.1427 15.6731 18.6883 15.8733 18.373 16.1593C18.0577 16.4263 17.9 16.8172 17.9 17.332C17.9 17.8086 18.0762 18.1805 18.4286 18.4474C18.781 18.7143 19.2169 18.8478 19.7362 18.8478C20.4225 18.8478 21.0252 18.6953 21.5446 18.3902C22.0639 18.0851 22.4626 17.6752 22.7409 17.1604C23.0376 16.6265 23.186 16.0449 23.186 15.4157V11.3544C23.186 10.7634 22.9541 10.2676 22.4905 9.86721C22.0453 9.4668 21.4333 9.2666 20.6543 9.2666C19.9124 9.2666 19.254 9.47634 18.679 9.89581C18.1226 10.3153 17.7146 10.8682 17.4549 11.5546L14.1164 9.92441C14.4132 9.04733 14.8861 8.29418 15.5353 7.66496C16.1844 7.03575 16.9634 6.54954 17.8722 6.20633C18.781 5.86313 19.7733 5.69152 20.849 5.69152C22.1288 5.69152 23.2602 5.92986 24.2432 6.40654C25.2262 6.88321 25.9866 7.55056 26.5245 8.40858C27.0809 9.24753 27.3591 10.2295 27.3591 11.3544V21.6507H23.4642V19.1338L24.4101 18.9622C23.965 19.6486 23.4735 20.2206 22.9356 20.6782C22.3977 21.1168 21.7949 21.4409 21.1273 21.6507C20.4596 21.8795 19.7177 21.9939 18.9016 21.9939Z" fill="currentColor"></path>
    <path d="M29.1677 21.6507V6.03473H33.0626V9.78141L32.7844 9.238C33.1182 7.92237 33.6654 7.03575 34.4258 6.57814C35.2048 6.10146 36.1229 5.86312 37.18 5.86312H38.0703V9.58121H36.7627C35.7426 9.58121 34.9173 9.90535 34.2867 10.5536C33.6561 11.1828 33.3408 12.079 33.3408 13.2421V21.6507H29.1677Z" fill="currentColor"></path>
    <path d="M38.6474 21.6507V0H42.8205V13.8713L41.2625 13.3565L47.9673 6.03473H53.1142L47.6056 12.3269L53.0863 21.6507H48.3568L43.7664 13.7283L46.1868 13.0991L41.5407 18.3044L42.8205 15.8161V21.6507H38.6474Z" fill="currentColor"></path>
    <path d="M53.6967 21.6507V0H57.8698V9.1236L57.369 8.43718C57.7214 7.50289 58.2871 6.81648 59.0661 6.37794C59.8636 5.92033 60.7909 5.69152 61.8481 5.69152C62.9981 5.69152 63.9996 5.93939 64.8528 6.43514C65.7245 6.93088 66.4015 7.62683 66.8837 8.52298C67.3659 9.40007 67.607 10.4297 67.607 11.6118V21.6507H63.4339V12.5271C63.4339 11.9169 63.3134 11.3926 63.0722 10.954C62.8497 10.5155 62.5251 10.1723 62.0985 9.92441C61.6905 9.67654 61.2083 9.55261 60.6518 9.55261C60.114 9.55261 59.6317 9.67654 59.2052 9.92441C58.7786 10.1723 58.4447 10.5155 58.2036 10.954C57.981 11.3926 57.8698 11.9169 57.8698 12.5271V21.6507H53.6967Z" fill="currentColor"></path>
    <path d="M76.6386 21.9939C75.1362 21.9939 73.7638 21.6411 72.5211 20.9356C71.297 20.2302 70.314 19.2673 69.5721 18.047C68.8488 16.8076 68.4871 15.4062 68.4871 13.8427C68.4871 12.2601 68.8488 10.8587 69.5721 9.63841C70.314 8.41811 71.297 7.45523 72.5211 6.74974C73.7638 6.04426 75.1362 5.69152 76.6386 5.69152C78.1409 5.69152 79.5041 6.04426 80.7282 6.74974C81.9523 7.45523 82.9261 8.41811 83.6494 9.63841C84.3913 10.8587 84.7622 12.2601 84.7622 13.8427C84.7622 15.4062 84.3913 16.8076 83.6494 18.047C82.9261 19.2673 81.9523 20.2302 80.7282 20.9356C79.5041 21.6411 78.1409 21.9939 76.6386 21.9939ZM76.6386 18.1328C77.399 18.1328 78.0574 17.9517 78.6138 17.5894C79.1888 17.2271 79.6339 16.7218 79.9492 16.0735C80.2831 15.4253 80.45 14.6816 80.45 13.8427C80.45 13.0037 80.2831 12.2697 79.9492 11.6404C79.6339 10.9922 79.1888 10.4869 78.6138 10.1246C78.0574 9.74328 77.399 9.55261 76.6386 9.55261C75.8781 9.55261 75.2104 9.74328 74.6355 10.1246C74.0605 10.4869 73.6061 10.9922 73.2723 11.6404C72.957 12.2697 72.7993 13.0037 72.7993 13.8427C72.7993 14.6816 72.957 15.4253 73.2723 16.0735C73.6061 16.7218 74.0605 17.2271 74.6355 17.5894C75.2104 17.9517 75.8781 18.1328 76.6386 18.1328Z" fill="currentColor"></path>
    <path d="M93.1187 21.9939C91.6349 21.9939 90.3088 21.6316 89.1403 20.907C87.9718 20.1825 87.0445 19.2005 86.3582 17.9612C85.6905 16.7218 85.3567 15.349 85.3567 13.8427C85.3567 12.3173 85.6998 10.9445 86.386 9.72421C87.0723 8.48485 87.9996 7.50289 89.1681 6.77834C90.3366 6.0538 91.6442 5.69152 93.0908 5.69152C94.2037 5.69152 95.1867 5.91079 96.0398 6.34934C96.9116 6.76881 97.5978 7.36943 98.0986 8.15117L97.4587 9.00919V0H101.632V21.6507H97.7369V18.7906L98.1264 19.6772C97.6071 20.4399 96.9023 21.0215 96.012 21.4219C95.1218 21.8032 94.1573 21.9939 93.1187 21.9939ZM93.6194 18.1328C94.3799 18.1328 95.0476 17.9517 95.6225 17.5894C96.1975 17.2271 96.6426 16.7218 96.9579 16.0735C97.2918 15.4253 97.4587 14.6816 97.4587 13.8427C97.4587 13.0037 97.2918 12.2601 96.9579 11.6118C96.6426 10.9636 96.1975 10.4583 95.6225 10.096C95.0476 9.73374 94.3799 9.55261 93.6194 9.55261C92.859 9.55261 92.1728 9.74328 91.5607 10.1246C90.9672 10.4869 90.5035 10.9922 90.1697 11.6404C89.8358 12.2697 89.6689 13.0037 89.6689 13.8427C89.6689 14.6816 89.8358 15.4253 90.1697 16.0735C90.5035 16.7218 90.9672 17.2271 91.5607 17.5894C92.1728 17.9517 92.859 18.1328 93.6194 18.1328Z" fill="currentColor"></path>
    <path d="M122.241 21.9939C120.943 21.9939 119.719 21.7555 118.569 21.2789C117.438 20.7831 116.455 20.0872 115.62 19.191C114.804 18.2949 114.192 17.2366 113.784 16.0163L117.317 14.3861C117.836 15.5492 118.55 16.4644 119.459 17.1318C120.387 17.7991 121.407 18.1328 122.52 18.1328C123.113 18.1328 123.623 18.0375 124.05 17.8468C124.476 17.6561 124.81 17.3987 125.051 17.0746C125.292 16.7314 125.413 16.3309 125.413 15.8733C125.413 15.3776 125.265 14.9581 124.968 14.6149C124.671 14.2526 124.207 13.9666 123.577 13.7569L119.515 12.3841C117.864 11.8311 116.622 11.0494 115.787 10.0388C114.952 9.00919 114.535 7.77937 114.535 6.34934C114.535 5.09091 114.832 3.98502 115.425 3.03166C116.037 2.07831 116.881 1.3347 117.957 0.800817C119.051 0.266939 120.303 0 121.713 0C122.955 0 124.105 0.219271 125.163 0.657814C126.22 1.09636 127.129 1.71604 127.889 2.51685C128.668 3.31767 129.252 4.28056 129.642 5.40552L126.136 7.03575C125.747 6.04426 125.163 5.27205 124.384 4.7191C123.605 4.14709 122.714 3.86108 121.713 3.86108C121.138 3.86108 120.628 3.95642 120.183 4.14709C119.738 4.33776 119.394 4.61423 119.153 4.97651C118.912 5.31971 118.792 5.72012 118.792 6.17773C118.792 6.67348 118.949 7.11202 119.265 7.49336C119.58 7.85564 120.053 8.14164 120.683 8.35138L124.662 9.66701C126.331 10.22 127.574 10.9922 128.39 11.9837C129.224 12.9751 129.642 14.1859 129.642 15.6159C129.642 16.8553 129.326 17.9612 128.696 18.9336C128.065 19.887 127.193 20.6401 126.081 21.1931C124.986 21.7269 123.707 21.9939 122.241 21.9939Z" fill="currentColor"></path>
    <path d="M135.859 21.9939C134.764 21.9939 133.818 21.8127 133.021 21.4505C132.223 21.0882 131.611 20.5734 131.185 19.906C130.758 19.2196 130.545 18.4093 130.545 17.475C130.545 16.5979 130.74 15.8257 131.129 15.1583C131.518 14.4719 132.112 13.8999 132.91 13.4423C133.726 12.9847 134.736 12.6605 135.942 12.4699L140.588 11.6977V14.8437L136.693 15.5587C136.1 15.6731 135.645 15.8733 135.33 16.1593C135.015 16.4263 134.857 16.8172 134.857 17.332C134.857 17.8086 135.033 18.1805 135.386 18.4474C135.738 18.7143 136.174 18.8478 136.693 18.8478C137.379 18.8478 137.982 18.6953 138.502 18.3902C139.021 18.0851 139.42 17.6752 139.698 17.1604C139.995 16.6265 140.143 16.0449 140.143 15.4157V11.3544C140.143 10.7634 139.911 10.2676 139.447 9.86721C139.002 9.4668 138.39 9.2666 137.611 9.2666C136.869 9.2666 136.211 9.47634 135.636 9.89581C135.08 10.3153 134.672 10.8682 134.412 11.5546L131.073 9.92441C131.37 9.04733 131.843 8.29418 132.492 7.66496C133.141 7.03575 133.92 6.54954 134.829 6.20633C135.738 5.86313 136.73 5.69152 137.806 5.69152C139.086 5.69152 140.217 5.92986 141.2 6.40654C142.183 6.88321 142.944 7.55056 143.481 8.40858C144.038 9.24753 144.316 10.2295 144.316 11.3544V21.6507H140.421V19.1338L141.367 18.9622C140.922 19.6486 140.43 20.2206 139.893 20.6782C139.355 21.1168 138.752 21.4409 138.084 21.6507C137.417 21.8795 136.675 21.9939 135.859 21.9939Z" fill="currentColor"></path>
    <path d="M148.489 28C148.044 28 147.608 27.9619 147.182 27.8856C146.774 27.8093 146.412 27.6854 146.097 27.5138V23.9959C146.356 24.0722 146.662 24.1389 147.015 24.1961C147.367 24.2533 147.692 24.2819 147.989 24.2819C148.805 24.2819 149.389 24.0817 149.741 23.6813C150.094 23.2809 150.381 22.8233 150.604 22.3085L151.633 19.8774L151.577 23.4525L144.901 6.03473H149.38L153.803 18.4188H152.134L156.557 6.03473H161.037L154.527 23.1093C154.118 24.1961 153.618 25.1018 153.024 25.8264C152.431 26.5509 151.754 27.0943 150.993 27.4566C150.251 27.8189 149.417 28 148.489 28Z" fill="currentColor"></path>
    <path d="M168.487 21.9939C167.003 21.9939 165.677 21.6316 164.508 20.907C163.34 20.1825 162.413 19.2005 161.726 17.9612C161.059 16.7218 160.725 15.349 160.725 13.8427C160.725 12.3173 161.068 10.9445 161.754 9.72421C162.44 8.48485 163.368 7.50289 164.536 6.77834C165.705 6.0538 167.012 5.69152 168.459 5.69152C169.572 5.69152 170.555 5.91079 171.408 6.34934C172.28 6.76881 172.966 7.36943 173.467 8.15117L172.827 9.00919V0H177V21.6507H173.105V18.7906L173.495 19.6772C172.975 20.4399 172.27 21.0215 171.38 21.4219C170.49 21.8032 169.525 21.9939 168.487 21.9939ZM168.988 18.1328C169.748 18.1328 170.416 17.9517 170.991 17.5894C171.566 17.2271 172.011 16.7218 172.326 16.0735C172.66 15.4253 172.827 14.6816 172.827 13.8427C172.827 13.0037 172.66 12.2601 172.326 11.6118C172.011 10.9636 171.566 10.4583 170.991 10.096C170.416 9.73374 169.748 9.55261 168.988 9.55261C168.227 9.55261 167.541 9.74328 166.929 10.1246C166.335 10.4869 165.872 10.9922 165.538 11.6404C165.204 12.2697 165.037 13.0037 165.037 13.8427C165.037 14.6816 165.204 15.4253 165.538 16.0735C165.872 16.7218 166.335 17.2271 166.929 17.5894C167.541 17.9517 168.227 18.1328 168.988 18.1328Z" fill="currentColor"></path>
  </symbol>
  <symbol fill="none" xmlns="http://www.w3.org/2000/svg" viewBox="0 0 155 23" id="site-logo">
    <circle cx="10" cy="11.5" r="10" fill="url(#paint0_linear_257_68)"></circle>
    <path d="M28 18.6915V4.23289H38.1116V6.85291H31.0731V10.5209H37.1203V13.141H31.0731V18.6915H28Z" fill="white"></path>
    <path d="M41.4703 18.9244C40.6905 18.9244 40.0164 18.8015 39.448 18.5557C38.8797 18.3098 38.4435 17.9605 38.1395 17.5077C37.8355 17.0419 37.6835 16.492 37.6835 15.858C37.6835 15.2629 37.8222 14.7389 38.0998 14.286C38.3774 13.8202 38.8004 13.4321 39.3687 13.1216C39.9503 12.811 40.6707 12.5911 41.5298 12.4617L44.8409 11.9377V14.0725L42.0651 14.5577C41.6422 14.6353 41.3183 14.7712 41.0936 14.9653C40.8689 15.1464 40.7566 15.4116 40.7566 15.761C40.7566 16.0844 40.8822 16.3367 41.1333 16.5179C41.3844 16.699 41.695 16.7896 42.0651 16.7896C42.5542 16.7896 42.9838 16.6861 43.3539 16.4791C43.724 16.272 44.0082 15.9939 44.2064 15.6445C44.4179 15.2823 44.5237 14.8876 44.5237 14.4607V11.7048C44.5237 11.3037 44.3584 10.9673 44.028 10.6956C43.7108 10.4239 43.2746 10.288 42.7194 10.288C42.1907 10.288 41.7215 10.4304 41.3117 10.715C40.9152 10.9997 40.6244 11.3749 40.4394 11.8407L38.0602 10.7344C38.2716 10.1393 38.6087 9.62819 39.0713 9.20123C39.5339 8.77426 40.0891 8.44433 40.7368 8.21144C41.3844 7.97855 42.0916 7.8621 42.8582 7.8621C43.7702 7.8621 44.5765 8.02383 45.2771 8.34729C45.9776 8.67075 46.5195 9.1236 46.9028 9.70582C47.2994 10.2751 47.4976 10.9414 47.4976 11.7048V18.6915H44.7219V16.9837L45.396 16.8672C45.0788 17.333 44.7285 17.7211 44.3452 18.0317C43.9619 18.3292 43.5323 18.5492 43.0565 18.6915C42.5806 18.8468 42.0519 18.9244 41.4703 18.9244Z" fill="white"></path>
    <path d="M48.7865 18.6915V8.09499H51.5623V10.6374L51.364 10.2686C51.6019 9.37589 51.9918 8.77426 52.5338 8.46374C53.0889 8.14028 53.7432 7.97855 54.4966 7.97855H55.1311V10.5015H54.1992C53.4722 10.5015 52.884 10.7215 52.4346 11.1614C51.9852 11.5884 51.7605 12.1965 51.7605 12.9857V18.6915H48.7865Z" fill="white"></path>
    <path d="M55.5423 18.6915V4H58.5163V13.4127L57.406 13.0633L62.1842 8.09499H65.8522L61.9265 12.3647L65.8323 18.6915H62.4618L59.1904 13.3156L60.9153 12.8887L57.6043 16.4208L58.5163 14.7324V18.6915H55.5423Z" fill="white"></path>
    <path d="M66.2673 18.6915V4H69.2413V10.191L68.8844 9.72523C69.1355 9.09125 69.5387 8.62547 70.0938 8.32789C70.6622 8.01736 71.3231 7.8621 72.0765 7.8621C72.896 7.8621 73.6098 8.0303 74.2178 8.3667C74.839 8.7031 75.3215 9.17535 75.6651 9.78345C76.0088 10.3786 76.1806 11.0773 76.1806 11.8795V18.6915H73.2066V12.5005C73.2066 12.0865 73.1207 11.7307 72.9489 11.4331C72.7902 11.1355 72.5589 10.9026 72.2549 10.7344C71.9641 10.5662 71.6205 10.4821 71.2239 10.4821C70.8406 10.4821 70.497 10.5662 70.193 10.7344C69.8889 10.9026 69.651 11.1355 69.4792 11.4331C69.3206 11.7307 69.2413 12.0865 69.2413 12.5005V18.6915H66.2673Z" fill="white"></path>
    <path d="M82.617 18.9244C81.5464 18.9244 80.5682 18.6851 79.6826 18.2063C78.8103 17.7276 78.1097 17.0742 77.581 16.2462C77.0655 15.4052 76.8078 14.4542 76.8078 13.3933C76.8078 12.3194 77.0655 11.3684 77.581 10.5403C78.1097 9.71229 78.8103 9.0589 79.6826 8.58018C80.5682 8.10146 81.5464 7.8621 82.617 7.8621C83.6876 7.8621 84.6591 8.10146 85.5315 8.58018C86.4039 9.0589 87.0978 9.71229 87.6133 10.5403C88.142 11.3684 88.4064 12.3194 88.4064 13.3933C88.4064 14.4542 88.142 15.4052 87.6133 16.2462C87.0978 17.0742 86.4039 17.7276 85.5315 18.2063C84.6591 18.6851 83.6876 18.9244 82.617 18.9244ZM82.617 16.3044C83.1589 16.3044 83.6281 16.1815 84.0247 15.9356C84.4344 15.6898 84.7517 15.347 84.9764 14.907C85.2143 14.4671 85.3332 13.9625 85.3332 13.3933C85.3332 12.824 85.2143 12.3258 84.9764 11.8989C84.7517 11.459 84.4344 11.1161 84.0247 10.8703C83.6281 10.6115 83.1589 10.4821 82.617 10.4821C82.0751 10.4821 81.5992 10.6115 81.1895 10.8703C80.7797 11.1161 80.4559 11.459 80.218 11.8989C79.9933 12.3258 79.8809 12.824 79.8809 13.3933C79.8809 13.9625 79.9933 14.4671 80.218 14.907C80.4559 15.347 80.7797 15.6898 81.1895 15.9356C81.5992 16.1815 82.0751 16.3044 82.617 16.3044Z" fill="white"></path>
    <path d="M94.3616 18.9244C93.3042 18.9244 92.3592 18.6786 91.5264 18.1869C90.6937 17.6953 90.0328 17.0289 89.5438 16.1879C89.0679 15.347 88.83 14.4154 88.83 13.3933C88.83 12.3582 89.0745 11.4266 89.5636 10.5986C90.0526 9.75758 90.7135 9.09125 91.5463 8.59959C92.379 8.10793 93.3108 7.8621 94.3418 7.8621C95.1349 7.8621 95.8354 8.0109 96.4434 8.30848C97.0647 8.59312 97.5537 9.00068 97.9106 9.53115L97.4546 10.1134V4H100.429V18.6915H97.6529V16.7508L97.9304 17.3524C97.5603 17.8699 97.0581 18.2646 96.4236 18.5363C95.7892 18.795 95.1018 18.9244 94.3616 18.9244ZM94.7185 16.3044C95.2604 16.3044 95.7363 16.1815 96.146 15.9356C96.5558 15.6898 96.873 15.347 97.0977 14.907C97.3356 14.4671 97.4546 13.9625 97.4546 13.3933C97.4546 12.824 97.3356 12.3194 97.0977 11.8795C96.873 11.4396 96.5558 11.0967 96.146 10.8509C95.7363 10.605 95.2604 10.4821 94.7185 10.4821C94.1766 10.4821 93.6875 10.6115 93.2513 10.8703C92.8284 11.1161 92.4979 11.459 92.26 11.8989C92.0221 12.3258 91.9031 12.824 91.9031 13.3933C91.9031 13.9625 92.0221 14.4671 92.26 14.907C92.4979 15.347 92.8284 15.6898 93.2513 15.9356C93.6875 16.1815 94.1766 16.3044 94.7185 16.3044Z" fill="white"></path>
    <path d="M109.976 18.9244C109.051 18.9244 108.178 18.7627 107.359 18.4392C106.552 18.1028 105.852 17.6306 105.257 17.0225C104.676 16.4144 104.239 15.6963 103.949 14.8682L106.467 13.762C106.837 14.5512 107.346 15.1723 107.993 15.6251C108.654 16.078 109.381 16.3044 110.174 16.3044C110.597 16.3044 110.961 16.2397 111.265 16.1103C111.569 15.9809 111.807 15.8063 111.978 15.5863C112.15 15.3534 112.236 15.0817 112.236 14.7712C112.236 14.4348 112.13 14.1502 111.919 13.9173C111.707 13.6714 111.377 13.4774 110.928 13.335L108.033 12.4035C106.857 12.0283 105.971 11.4978 105.376 10.8121C104.781 10.1134 104.484 9.27886 104.484 8.30848C104.484 7.45455 104.695 6.70412 105.118 6.0572C105.555 5.41028 106.156 4.90569 106.923 4.54341C107.702 4.18114 108.595 4 109.599 4C110.485 4 111.304 4.14879 112.058 4.44637C112.811 4.74396 113.459 5.16445 114.001 5.70787C114.556 6.25128 114.972 6.90466 115.25 7.66803L112.752 8.77426C112.474 8.10146 112.058 7.57746 111.503 7.20225C110.947 6.8141 110.313 6.62002 109.599 6.62002C109.189 6.62002 108.826 6.68471 108.509 6.8141C108.191 6.94348 107.947 7.13109 107.775 7.37692C107.603 7.60981 107.517 7.88151 107.517 8.19203C107.517 8.52843 107.63 8.82601 107.854 9.08478C108.079 9.33061 108.416 9.52468 108.866 9.66701L111.701 10.5598C112.89 10.935 113.776 11.459 114.358 12.1318C114.952 12.8046 115.25 13.6261 115.25 14.5965C115.25 15.4375 115.025 16.1879 114.576 16.8478C114.126 17.4947 113.505 18.0058 112.712 18.381C111.932 18.7433 111.02 18.9244 109.976 18.9244Z" fill="white"></path>
    <path d="M119.68 18.9244C118.9 18.9244 118.226 18.8015 117.658 18.5557C117.09 18.3098 116.653 17.9605 116.349 17.5077C116.045 17.0419 115.893 16.492 115.893 15.858C115.893 15.2629 116.032 14.7389 116.31 14.286C116.587 13.8202 117.01 13.4321 117.579 13.1216C118.16 12.811 118.881 12.5911 119.74 12.4617L123.051 11.9377V14.0725L120.275 14.5577C119.852 14.6353 119.528 14.7712 119.304 14.9653C119.079 15.1464 118.967 15.4116 118.967 15.761C118.967 16.0844 119.092 16.3367 119.343 16.5179C119.594 16.699 119.905 16.7896 120.275 16.7896C120.764 16.7896 121.194 16.6861 121.564 16.4791C121.934 16.272 122.218 15.9939 122.416 15.6445C122.628 15.2823 122.734 14.8876 122.734 14.4607V11.7048C122.734 11.3037 122.568 10.9673 122.238 10.6956C121.921 10.4239 121.484 10.288 120.929 10.288C120.401 10.288 119.931 10.4304 119.522 10.715C119.125 10.9997 118.834 11.3749 118.649 11.8407L116.27 10.7344C116.482 10.1393 116.819 9.62819 117.281 9.20123C117.744 8.77426 118.299 8.44433 118.947 8.21144C119.594 7.97855 120.302 7.8621 121.068 7.8621C121.98 7.8621 122.786 8.02383 123.487 8.34729C124.188 8.67075 124.729 9.1236 125.113 9.70582C125.509 10.2751 125.708 10.9414 125.708 11.7048V18.6915H122.932V16.9837L123.606 16.8672C123.289 17.333 122.938 17.7211 122.555 18.0317C122.172 18.3292 121.742 18.5492 121.266 18.6915C120.791 18.8468 120.262 18.9244 119.68 18.9244Z" fill="white"></path>
    <path d="M128.682 23C128.364 23 128.054 22.9741 127.75 22.9224C127.459 22.8706 127.201 22.7865 126.977 22.6701V20.2829C127.162 20.3347 127.38 20.38 127.631 20.4188C127.882 20.4576 128.113 20.477 128.325 20.477C128.906 20.477 129.323 20.3412 129.574 20.0695C129.825 19.7978 130.03 19.4872 130.189 19.1379L130.922 17.4883L130.882 19.9142L126.124 8.09499H129.316L132.469 16.4985H131.279L134.431 8.09499H137.624L132.984 19.6813C132.693 20.4188 132.336 21.0334 131.913 21.525C131.49 22.0167 131.008 22.3854 130.466 22.6313C129.937 22.8771 129.343 23 128.682 23Z" fill="white"></path>
    <path d="M142.933 18.9244C141.876 18.9244 140.931 18.6786 140.098 18.1869C139.265 17.6953 138.604 17.0289 138.115 16.1879C137.639 15.347 137.401 14.4154 137.401 13.3933C137.401 12.3582 137.646 11.4266 138.135 10.5986C138.624 9.75758 139.285 9.09125 140.118 8.59959C140.95 8.10793 141.882 7.8621 142.913 7.8621C143.706 7.8621 144.407 8.0109 145.015 8.30848C145.636 8.59312 146.125 9.00068 146.482 9.53115L146.026 10.1134V4H149V18.6915H146.224V16.7508L146.502 17.3524C146.132 17.8699 145.629 18.2646 144.995 18.5363C144.361 18.795 143.673 18.9244 142.933 18.9244ZM143.29 16.3044C143.832 16.3044 144.308 16.1815 144.717 15.9356C145.127 15.6898 145.444 15.347 145.669 14.907C145.907 14.4671 146.026 13.9625 146.026 13.3933C146.026 12.824 145.907 12.3194 145.669 11.8795C145.444 11.4396 145.127 11.0967 144.717 10.8509C144.308 10.605 143.832 10.4821 143.29 10.4821C142.748 10.4821 142.259 10.6115 141.823 10.8703C141.4 11.1161 141.069 11.459 140.831 11.8989C140.593 12.3258 140.475 12.824 140.475 13.3933C140.475 13.9625 140.593 14.4671 140.831 14.907C141.069 15.347 141.4 15.6898 141.823 15.9356C142.259 16.1815 142.748 16.3044 143.29 16.3044Z" fill="white"></path>
    <defs>
      <linearGradient id="paint0_linear_257_68" x1="16.4" y1="3.3" x2="10" y2="21.5" gradientUnits="userSpaceOnUse">
        <stop stop-color="#F1CB00"></stop>
        <stop offset="1" stop-color="#FF1F00"></stop>
      </linearGradient>
    </defs>
  </symbol>
  <symbol fill="none" xmlns="http://www.w3.org/2000/svg" viewBox="0 0 25 25" id="icon-x">
    <path opacity="1" fill-rule="evenodd" clip-rule="evenodd" d="M12.0208 9.89952L2.12132 0L0 2.12132L9.89952 12.0208L5.82933e-05 21.9203L2.12138 24.0416L12.0208 14.1422L21.9203 24.0416L24.0416 21.9203L14.1422 12.0208L24.0417 2.12132L21.9204 0L12.0208 9.89952Z" fill="white"></path>
  </symbol>
  <symbol fill="none" xmlns="http://www.w3.org/2000/svg" viewBox="0 0 20 7" id="arrow">
    <path fill-rule="evenodd" clip-rule="evenodd" d="M17 0H16V1H17V2H18V3H0V4H18V5H17V6H16V7H17V6H18V5H19V4H20V3H19V2H18V1H17V0Z" fill="currentColor"></path>
  </symbol>
  <symbol viewBox="0 0 32 61" fill="none" xmlns="http://www.w3.org/2000/svg" id="arrow-scroll">
    <path fill-rule="evenodd" clip-rule="evenodd" d="M15.5566 0L17.3242 1.76776L31.1133 15.5563L29.3457 17.3241L16.8066 4.78528V60.5563H14.3066V4.78528L1.76758 17.3241L0 15.5563L13.7891 1.76776L15.5566 0Z" fill="white"/>
  </symbol>
</svg>