<svg width="61" height="26" viewBox="0 0 61 26" fill="none" xmlns="http://www.w3.org/2000/svg">
<path d="M8.16102 20.4229C6.90823 20.4229 5.72703 20.2016 4.61742 19.7589C3.5257 19.2986 2.57716 18.6524 1.7718 17.8202C0.984333 16.9881 0.393733 16.0054 0 14.8723L3.40937 13.3585C3.91049 14.4385 4.59952 15.2884 5.47647 15.9081C6.37132 16.5277 7.35565 16.8376 8.42947 16.8376C9.00218 16.8376 9.49434 16.7491 9.90597 16.572C10.3176 16.395 10.6397 16.1559 10.8724 15.855C11.1051 15.5363 11.2214 15.1645 11.2214 14.7395C11.2214 14.2792 11.0782 13.8897 10.7919 13.571C10.5055 13.2346 10.0581 12.969 9.4496 12.7743L5.53016 11.4995C3.93733 10.986 2.73824 10.2601 1.93287 9.32176C1.12751 8.36568 0.724827 7.2237 0.724827 5.89581C0.724827 4.72727 1.01118 3.70037 1.58388 2.81512C2.17448 1.92986 2.98879 1.23936 4.02682 0.743616C5.08274 0.247872 6.29078 0 7.65095 0C8.85005 0 9.95966 0.203609 10.9798 0.610827C11.9999 1.01805 12.8769 1.59346 13.6106 2.33708C14.3623 3.08069 14.9261 3.9748 15.3019 5.01941L11.9194 6.5332C11.5435 5.61253 10.9798 4.89547 10.2281 4.38202C9.47645 3.85087 8.61739 3.58529 7.65095 3.58529C7.09615 3.58529 6.60398 3.67382 6.17445 3.85087C5.74493 4.02792 5.41383 4.28464 5.18117 4.62104C4.94851 4.93973 4.83218 5.31154 4.83218 5.73647C4.83218 6.1968 4.98431 6.60402 5.28855 6.95812C5.5928 7.29452 6.04918 7.56009 6.65767 7.75485L10.4966 8.97651C12.1073 9.48995 13.3064 10.207 14.0939 11.1277C14.8992 12.0483 15.3019 13.1726 15.3019 14.5005C15.3019 15.6513 14.9977 16.6782 14.3892 17.5812C13.7807 18.4665 12.9395 19.1658 11.8657 19.6793C10.8098 20.175 9.57488 20.4229 8.16102 20.4229Z" fill="white"/>
<path d="M21.3008 20.4229C20.2449 20.4229 19.3322 20.2547 18.5626 19.9183C17.793 19.5819 17.2024 19.1038 16.7908 18.4842C16.3791 17.8468 16.1733 17.0943 16.1733 16.2268C16.1733 15.4123 16.3613 14.6953 16.7371 14.0756C17.1129 13.4382 17.6856 12.907 18.4552 12.4821C19.2427 12.0572 20.2181 11.7562 21.3814 11.5792L25.8645 10.8621V13.7835L22.1062 14.4474C21.5335 14.5536 21.095 14.7395 20.7908 15.0051C20.4865 15.253 20.3344 15.6159 20.3344 16.094C20.3344 16.5366 20.5044 16.8819 20.8444 17.1297C21.1845 17.3776 21.6051 17.5015 22.1062 17.5015C22.7684 17.5015 23.35 17.3599 23.8511 17.0766C24.3523 16.7933 24.737 16.4127 25.0055 15.9346C25.2918 15.4389 25.435 14.8989 25.435 14.3146V10.5434C25.435 9.99455 25.2113 9.53422 24.7639 9.16241C24.3344 8.7906 23.7438 8.6047 22.9921 8.6047C22.2762 8.6047 21.6409 8.79946 21.0861 9.18897C20.5491 9.57848 20.1554 10.0919 19.9049 10.7293L16.6834 9.21552C16.9697 8.40109 17.4261 7.70174 18.0525 7.11747C18.6789 6.5332 19.4306 6.08172 20.3075 5.76302C21.1845 5.44433 22.142 5.28498 23.18 5.28498C24.4149 5.28498 25.5066 5.5063 26.4551 5.94893C27.4037 6.39156 28.1375 7.01124 28.6565 7.80797C29.1934 8.58699 29.4618 9.49881 29.4618 10.5434V20.1042H25.7035V17.7671L26.6162 17.6078C26.1867 18.2451 25.7124 18.7763 25.1934 19.2012C24.6744 19.6084 24.0927 19.9094 23.4485 20.1042C22.8042 20.3167 22.0883 20.4229 21.3008 20.4229Z" fill="white"/>
<path d="M33.4889 26C33.0593 26 32.6388 25.9646 32.2271 25.8938C31.8334 25.823 31.4844 25.7079 31.1802 25.5485V22.2819C31.4307 22.3527 31.726 22.4147 32.0661 22.4678C32.4061 22.5209 32.7193 22.5475 33.0056 22.5475C33.7931 22.5475 34.3569 22.3616 34.6969 21.9898C35.0369 21.618 35.3144 21.1931 35.5291 20.715L36.5224 18.4576L36.4687 21.7773L30.0258 5.60368H34.3479L38.6163 17.1032H37.0056L41.274 5.60368H45.5962L39.3143 21.4586C38.9206 22.4678 38.4374 23.3088 37.8647 23.9816C37.292 24.6544 36.6387 25.159 35.905 25.4954C35.1891 25.8318 34.3837 26 33.4889 26Z" fill="white"/>
<path d="M52.7853 20.4229C51.3535 20.4229 50.0739 20.0865 48.9464 19.4137C47.8189 18.7409 46.924 17.8291 46.2618 16.6782C45.6176 15.5274 45.2954 14.2526 45.2954 12.8539C45.2954 11.4375 45.6265 10.1628 46.2887 9.02962C46.9509 7.87879 47.8457 6.96697 48.9732 6.29418C50.1007 5.62138 51.3625 5.28498 52.7584 5.28498C53.8323 5.28498 54.7808 5.48859 55.6041 5.89581C56.4452 6.28533 57.1074 6.84304 57.5906 7.56895L56.9732 8.36568V0H61V20.1042H57.2416V17.4484L57.6175 18.2717C57.1164 18.9799 56.4363 19.5199 55.5772 19.8917C54.7182 20.2458 53.7875 20.4229 52.7853 20.4229ZM53.2685 16.8376C54.0023 16.8376 54.6466 16.6694 55.2014 16.333C55.7562 15.9966 56.1857 15.5274 56.49 14.9254C56.8121 14.3235 56.9732 13.633 56.9732 12.8539C56.9732 12.0749 56.8121 11.3844 56.49 10.7824C56.1857 10.1805 55.7562 9.71127 55.2014 9.37487C54.6466 9.03847 54.0023 8.87028 53.2685 8.87028C52.5347 8.87028 51.8725 9.04733 51.2819 9.40143C50.7092 9.73783 50.2618 10.207 49.9397 10.809C49.6175 11.3933 49.4565 12.0749 49.4565 12.8539C49.4565 13.633 49.6175 14.3235 49.9397 14.9254C50.2618 15.5274 50.7092 15.9966 51.2819 16.333C51.8725 16.6694 52.5347 16.8376 53.2685 16.8376Z" fill="white"/>
</svg>
