<svg width="0" height="0" class="hidden">
  <symbol fill="none" xmlns="http://www.w3.org/2000/svg" viewBox="0 0 25 25" id="icon-x">
    <path opacity="1" fill-rule="evenodd" clip-rule="evenodd" d="M12.0208 9.89952L2.12132 0L0 2.12132L9.89952 12.0208L5.82933e-05 21.9203L2.12138 24.0416L12.0208 14.1422L21.9203 24.0416L24.0416 21.9203L14.1422 12.0208L24.0417 2.12132L21.9204 0L12.0208 9.89952Z" fill="white"></path>
  </symbol>
  <symbol fill="none" xmlns="http://www.w3.org/2000/svg" viewBox="0 0 61 26" id="logo-lastname">
    <path d="M8.16102 20.4229C6.90823 20.4229 5.72703 20.2016 4.61742 19.7589C3.5257 19.2986 2.57716 18.6524 1.7718 17.8202C0.984333 16.9881 0.393733 16.0054 0 14.8723L3.40937 13.3585C3.91049 14.4385 4.59952 15.2884 5.47647 15.9081C6.37132 16.5277 7.35565 16.8376 8.42947 16.8376C9.00218 16.8376 9.49434 16.7491 9.90597 16.572C10.3176 16.395 10.6397 16.1559 10.8724 15.855C11.1051 15.5363 11.2214 15.1645 11.2214 14.7395C11.2214 14.2792 11.0782 13.8897 10.7919 13.571C10.5055 13.2346 10.0581 12.969 9.4496 12.7743L5.53016 11.4995C3.93733 10.986 2.73824 10.2601 1.93287 9.32176C1.12751 8.36568 0.724827 7.2237 0.724827 5.89581C0.724827 4.72727 1.01118 3.70037 1.58388 2.81512C2.17448 1.92986 2.98879 1.23936 4.02682 0.743616C5.08274 0.247872 6.29078 0 7.65095 0C8.85005 0 9.95966 0.203609 10.9798 0.610827C11.9999 1.01805 12.8769 1.59346 13.6106 2.33708C14.3623 3.08069 14.9261 3.9748 15.3019 5.01941L11.9194 6.5332C11.5435 5.61253 10.9798 4.89547 10.2281 4.38202C9.47645 3.85087 8.61739 3.58529 7.65095 3.58529C7.09615 3.58529 6.60398 3.67382 6.17445 3.85087C5.74493 4.02792 5.41383 4.28464 5.18117 4.62104C4.94851 4.93973 4.83218 5.31154 4.83218 5.73647C4.83218 6.1968 4.98431 6.60402 5.28855 6.95812C5.5928 7.29452 6.04918 7.56009 6.65767 7.75485L10.4966 8.97651C12.1073 9.48995 13.3064 10.207 14.0939 11.1277C14.8992 12.0483 15.3019 13.1726 15.3019 14.5005C15.3019 15.6513 14.9977 16.6782 14.3892 17.5812C13.7807 18.4665 12.9395 19.1658 11.8657 19.6793C10.8098 20.175 9.57488 20.4229 8.16102 20.4229Z" fill="white"></path>
    <path d="M21.3008 20.4229C20.2449 20.4229 19.3322 20.2547 18.5626 19.9183C17.793 19.5819 17.2024 19.1038 16.7908 18.4842C16.3791 17.8468 16.1733 17.0943 16.1733 16.2268C16.1733 15.4123 16.3613 14.6953 16.7371 14.0756C17.1129 13.4382 17.6856 12.907 18.4552 12.4821C19.2427 12.0572 20.2181 11.7562 21.3814 11.5792L25.8645 10.8621V13.7835L22.1062 14.4474C21.5335 14.5536 21.095 14.7395 20.7908 15.0051C20.4865 15.253 20.3344 15.6159 20.3344 16.094C20.3344 16.5366 20.5044 16.8819 20.8444 17.1297C21.1845 17.3776 21.6051 17.5015 22.1062 17.5015C22.7684 17.5015 23.35 17.3599 23.8511 17.0766C24.3523 16.7933 24.737 16.4127 25.0055 15.9346C25.2918 15.4389 25.435 14.8989 25.435 14.3146V10.5434C25.435 9.99455 25.2113 9.53422 24.7639 9.16241C24.3344 8.7906 23.7438 8.6047 22.9921 8.6047C22.2762 8.6047 21.6409 8.79946 21.0861 9.18897C20.5491 9.57848 20.1554 10.0919 19.9049 10.7293L16.6834 9.21552C16.9697 8.40109 17.4261 7.70174 18.0525 7.11747C18.6789 6.5332 19.4306 6.08172 20.3075 5.76302C21.1845 5.44433 22.142 5.28498 23.18 5.28498C24.4149 5.28498 25.5066 5.5063 26.4551 5.94893C27.4037 6.39156 28.1375 7.01124 28.6565 7.80797C29.1934 8.58699 29.4618 9.49881 29.4618 10.5434V20.1042H25.7035V17.7671L26.6162 17.6078C26.1867 18.2451 25.7124 18.7763 25.1934 19.2012C24.6744 19.6084 24.0927 19.9094 23.4485 20.1042C22.8042 20.3167 22.0883 20.4229 21.3008 20.4229Z" fill="white"></path>
    <path d="M33.4889 26C33.0593 26 32.6388 25.9646 32.2271 25.8938C31.8334 25.823 31.4844 25.7079 31.1802 25.5485V22.2819C31.4307 22.3527 31.726 22.4147 32.0661 22.4678C32.4061 22.5209 32.7193 22.5475 33.0056 22.5475C33.7931 22.5475 34.3569 22.3616 34.6969 21.9898C35.0369 21.618 35.3144 21.1931 35.5291 20.715L36.5224 18.4576L36.4687 21.7773L30.0258 5.60368H34.3479L38.6163 17.1032H37.0056L41.274 5.60368H45.5962L39.3143 21.4586C38.9206 22.4678 38.4374 23.3088 37.8647 23.9816C37.292 24.6544 36.6387 25.159 35.905 25.4954C35.1891 25.8318 34.3837 26 33.4889 26Z" fill="white"></path>
    <path d="M52.7853 20.4229C51.3535 20.4229 50.0739 20.0865 48.9464 19.4137C47.8189 18.7409 46.924 17.8291 46.2618 16.6782C45.6176 15.5274 45.2954 14.2526 45.2954 12.8539C45.2954 11.4375 45.6265 10.1628 46.2887 9.02962C46.9509 7.87879 47.8457 6.96697 48.9732 6.29418C50.1007 5.62138 51.3625 5.28498 52.7584 5.28498C53.8323 5.28498 54.7808 5.48859 55.6041 5.89581C56.4452 6.28533 57.1074 6.84304 57.5906 7.56895L56.9732 8.36568V0H61V20.1042H57.2416V17.4484L57.6175 18.2717C57.1164 18.9799 56.4363 19.5199 55.5772 19.8917C54.7182 20.2458 53.7875 20.4229 52.7853 20.4229ZM53.2685 16.8376C54.0023 16.8376 54.6466 16.6694 55.2014 16.333C55.7562 15.9966 56.1857 15.5274 56.49 14.9254C56.8121 14.3235 56.9732 13.633 56.9732 12.8539C56.9732 12.0749 56.8121 11.3844 56.49 10.7824C56.1857 10.1805 55.7562 9.71127 55.2014 9.37487C54.6466 9.03847 54.0023 8.87028 53.2685 8.87028C52.5347 8.87028 51.8725 9.04733 51.2819 9.40143C50.7092 9.73783 50.2618 10.207 49.9397 10.809C49.6175 11.3933 49.4565 12.0749 49.4565 12.8539C49.4565 13.633 49.6175 14.3235 49.9397 14.9254C50.2618 15.5274 50.7092 15.9966 51.2819 16.333C51.8725 16.6694 52.5347 16.8376 53.2685 16.8376Z" fill="white"></path>
  </symbol>
  <symbol fill="none" xmlns="http://www.w3.org/2000/svg" viewBox="0 0 100 22" id="logo-name">
    <path d="M0 21.1723V0.827697H13.9608V4.5143H4.24298V9.67555H12.5921V13.3622H4.24298V21.1723H0Z" fill="white"></path>
    <path d="M18.5981 21.5C17.5214 21.5 16.5907 21.327 15.806 20.9811C15.0212 20.6352 14.419 20.1437 13.9993 19.5065C13.5795 18.8511 13.3697 18.0774 13.3697 17.1853C13.3697 16.3479 13.5613 15.6105 13.9445 14.9733C14.3278 14.3179 14.9117 13.7718 15.6965 13.3349C16.4994 12.8979 17.494 12.5884 18.6802 12.4064L23.2517 11.6691V14.673L19.4193 15.3557C18.8353 15.4649 18.3882 15.656 18.078 15.9291C17.7678 16.184 17.6126 16.5572 17.6126 17.0488C17.6126 17.5039 17.786 17.8589 18.1327 18.1138C18.4795 18.3687 18.9083 18.4961 19.4193 18.4961C20.0946 18.4961 20.6877 18.3505 21.1986 18.0592C21.7096 17.7679 22.102 17.3765 22.3757 16.8849C22.6677 16.3752 22.8137 15.8199 22.8137 15.2191V11.3414C22.8137 10.777 22.5856 10.3036 22.1294 9.92133C21.6914 9.53901 21.0891 9.34785 20.3227 9.34785C19.5927 9.34785 18.9448 9.54811 18.3791 9.94863C17.8316 10.3492 17.4301 10.8771 17.1747 11.5325L13.8898 9.97594C14.1818 9.13849 14.6471 8.41938 15.2858 7.8186C15.9246 7.21782 16.691 6.75358 17.5853 6.42588C18.4795 6.09818 19.4558 5.93433 20.5143 5.93433C21.7735 5.93433 22.8867 6.1619 23.8539 6.61703C24.8211 7.07217 25.5694 7.70936 26.0986 8.52861C26.6461 9.32965 26.9198 10.2672 26.9198 11.3414V21.1723H23.0875V18.7692L24.0182 18.6053C23.5802 19.2607 23.0966 19.8069 22.5673 20.2438C22.0381 20.6625 21.445 20.972 20.788 21.1723C20.1311 21.3908 19.4011 21.5 18.5981 21.5Z" fill="white"></path>
    <path d="M28.6993 21.1723V6.26203H32.5317V9.8394L32.258 9.32055C32.5865 8.06437 33.1248 7.21782 33.873 6.78088C34.6395 6.32575 35.5429 6.09818 36.5831 6.09818H37.459V9.64824H36.1725C35.1688 9.64824 34.3567 9.95774 33.7362 10.5767C33.1157 11.1775 32.8055 12.0332 32.8055 13.1437V21.1723H28.6993Z" fill="white"></path>
    <path d="M38.0268 21.1723V0.5H42.133V13.7445L40.6 13.2529L47.1972 6.26203H52.2614L46.8413 12.2698L52.234 21.1723H47.5804L43.0637 13.6079L45.4452 13.0072L40.8737 17.9772L42.133 15.6014V21.1723H38.0268Z" fill="white"></path>
    <path d="M52.8345 21.1723V0.5H56.9406V12.461L56.4479 8.55592C56.7946 7.66385 57.3512 7.00845 58.1177 6.58973C58.9024 6.1528 59.8149 5.93433 60.8551 5.93433C61.9866 5.93433 62.972 6.171 63.8115 6.64434C64.6692 7.11769 65.3353 7.78218 65.8098 8.63784C66.2843 9.47529 66.5215 10.4584 66.5215 11.5871V21.1723H62.4154V12.461C62.4154 11.8784 62.2968 11.3778 62.0596 10.959C61.8406 10.5403 61.5212 10.2126 61.1015 9.97594C60.7 9.73927 60.2255 9.62094 59.678 9.62094C59.1488 9.62094 58.6743 9.73927 58.2546 9.97594C57.8348 10.2126 57.5063 10.5403 57.2691 10.959C57.0501 11.3778 56.9406 11.8784 56.9406 12.461V21.1723H52.8345Z" fill="white"></path>
    <path d="M75.408 21.5C73.9298 21.5 72.5794 21.1632 71.3567 20.4896C70.1522 19.816 69.185 18.8966 68.455 17.7315C67.7433 16.5481 67.3875 15.21 67.3875 13.7172C67.3875 12.2061 67.7433 10.868 68.455 9.70286C69.185 8.53771 70.1522 7.61834 71.3567 6.94473C72.5794 6.27113 73.9298 5.93433 75.408 5.93433C76.8862 5.93433 78.2276 6.27113 79.432 6.94473C80.6365 7.61834 81.5946 8.53771 82.3063 9.70286C83.0363 10.868 83.4013 12.2061 83.4013 13.7172C83.4013 15.21 83.0363 16.5481 82.3063 17.7315C81.5946 18.8966 80.6365 19.816 79.432 20.4896C78.2276 21.1632 76.8862 21.5 75.408 21.5ZM75.408 17.8134C76.1563 17.8134 76.8041 17.6404 77.3516 17.2945C77.9173 16.9486 78.3553 16.4662 78.6656 15.8472C78.9941 15.2282 79.1583 14.5182 79.1583 13.7172C79.1583 12.9161 78.9941 12.2152 78.6656 11.6144C78.3553 10.9954 77.9173 10.513 77.3516 10.1671C76.8041 9.80299 76.1563 9.62094 75.408 9.62094C74.6598 9.62094 74.0029 9.80299 73.4371 10.1671C72.8714 10.513 72.4243 10.9954 72.0958 11.6144C71.7855 12.2152 71.6304 12.9161 71.6304 13.7172C71.6304 14.5182 71.7855 15.2282 72.0958 15.8472C72.4243 16.4662 72.8714 16.9486 73.4371 17.2945C74.0029 17.6404 74.6598 17.8134 75.408 17.8134Z" fill="white"></path>
    <path d="M91.6235 21.5C90.1636 21.5 88.8588 21.1541 87.709 20.4623C86.5593 19.7705 85.6469 18.8329 84.9716 17.6495C84.3147 16.4662 83.9862 15.1554 83.9862 13.7172C83.9862 12.2607 84.3238 10.9499 84.999 9.78479C85.6742 8.60143 86.5867 7.66385 87.7364 6.97204C88.8861 6.28023 90.1727 5.93433 91.5962 5.93433C92.6911 5.93433 93.6583 6.14369 94.4978 6.56242C95.3555 6.96294 96.0308 7.53641 96.5235 8.28283L95.8939 9.10208V0.5H100V21.1723H96.1676V18.4415L96.5509 19.288C96.0399 20.0163 95.3464 20.5715 94.4704 20.9538C93.5945 21.3179 92.6455 21.5 91.6235 21.5ZM92.1163 17.8134C92.8645 17.8134 93.5215 17.6404 94.0872 17.2945C94.6529 16.9486 95.0909 16.4662 95.4012 15.8472C95.7297 15.2282 95.8939 14.5182 95.8939 13.7172C95.8939 12.9161 95.7297 12.2061 95.4012 11.5871C95.0909 10.9681 94.6529 10.4857 94.0872 10.1398C93.5215 9.79389 92.8645 9.62094 92.1163 9.62094C91.368 9.62094 90.6928 9.80299 90.0906 10.1671C89.5066 10.513 89.0504 10.9954 88.7219 11.6144C88.3934 12.2152 88.2292 12.9161 88.2292 13.7172C88.2292 14.5182 88.3934 15.2282 88.7219 15.8472C89.0504 16.4662 89.5066 16.9486 90.0906 17.2945C90.6928 17.6404 91.368 17.8134 92.1163 17.8134Z" fill="white"></path>
  </symbol>
  <symbol fill="none" xmlns="http://www.w3.org/2000/svg" viewBox="0 0 20 20" id="orange-logo">
    <circle cx="10" cy="10" r="10" fill="url(#paint0_linear_257_128)"></circle>
    <defs>
      <linearGradient id="paint0_linear_257_128" x1="16.4" y1="1.8" x2="10" y2="20" gradientUnits="userSpaceOnUse">
        <stop stop-color="#F1CB00"></stop>
        <stop offset="1" stop-color="#FF1F00"></stop>
      </linearGradient>
    </defs>
  </symbol>
  <symbol fill="none" xmlns="http://www.w3.org/2000/svg" viewBox="0 0 20 7" id="arrow">
    <path fill-rule="evenodd" clip-rule="evenodd" d="M17 0H16V1H17V2H18V3H0V4H18V5H17V6H16V7H17V6H18V5H19V4H20V3H19V2H18V1H17V0Z" fill="white"></path>
  </symbol>
  <symbol fill="none" xmlns="http://www.w3.org/2000/svg" viewBox="0 0 155 23" id="site-logo">
    <circle cx="10" cy="11.5" r="10" fill="url(#paint0_linear_257_68)"></circle>
    <path d="M28 18.6915V4.23289H38.1116V6.85291H31.0731V10.5209H37.1203V13.141H31.0731V18.6915H28Z" fill="white"></path>
    <path d="M41.4703 18.9244C40.6905 18.9244 40.0164 18.8015 39.448 18.5557C38.8797 18.3098 38.4435 17.9605 38.1395 17.5077C37.8355 17.0419 37.6835 16.492 37.6835 15.858C37.6835 15.2629 37.8222 14.7389 38.0998 14.286C38.3774 13.8202 38.8004 13.4321 39.3687 13.1216C39.9503 12.811 40.6707 12.5911 41.5298 12.4617L44.8409 11.9377V14.0725L42.0651 14.5577C41.6422 14.6353 41.3183 14.7712 41.0936 14.9653C40.8689 15.1464 40.7566 15.4116 40.7566 15.761C40.7566 16.0844 40.8822 16.3367 41.1333 16.5179C41.3844 16.699 41.695 16.7896 42.0651 16.7896C42.5542 16.7896 42.9838 16.6861 43.3539 16.4791C43.724 16.272 44.0082 15.9939 44.2064 15.6445C44.4179 15.2823 44.5237 14.8876 44.5237 14.4607V11.7048C44.5237 11.3037 44.3584 10.9673 44.028 10.6956C43.7108 10.4239 43.2746 10.288 42.7194 10.288C42.1907 10.288 41.7215 10.4304 41.3117 10.715C40.9152 10.9997 40.6244 11.3749 40.4394 11.8407L38.0602 10.7344C38.2716 10.1393 38.6087 9.62819 39.0713 9.20123C39.5339 8.77426 40.0891 8.44433 40.7368 8.21144C41.3844 7.97855 42.0916 7.8621 42.8582 7.8621C43.7702 7.8621 44.5765 8.02383 45.2771 8.34729C45.9776 8.67075 46.5195 9.1236 46.9028 9.70582C47.2994 10.2751 47.4976 10.9414 47.4976 11.7048V18.6915H44.7219V16.9837L45.396 16.8672C45.0788 17.333 44.7285 17.7211 44.3452 18.0317C43.9619 18.3292 43.5323 18.5492 43.0565 18.6915C42.5806 18.8468 42.0519 18.9244 41.4703 18.9244Z" fill="white"></path>
    <path d="M48.7865 18.6915V8.09499H51.5623V10.6374L51.364 10.2686C51.6019 9.37589 51.9918 8.77426 52.5338 8.46374C53.0889 8.14028 53.7432 7.97855 54.4966 7.97855H55.1311V10.5015H54.1992C53.4722 10.5015 52.884 10.7215 52.4346 11.1614C51.9852 11.5884 51.7605 12.1965 51.7605 12.9857V18.6915H48.7865Z" fill="white"></path>
    <path d="M55.5423 18.6915V4H58.5163V13.4127L57.406 13.0633L62.1842 8.09499H65.8522L61.9265 12.3647L65.8323 18.6915H62.4618L59.1904 13.3156L60.9153 12.8887L57.6043 16.4208L58.5163 14.7324V18.6915H55.5423Z" fill="white"></path>
    <path d="M66.2673 18.6915V4H69.2413V10.191L68.8844 9.72523C69.1355 9.09125 69.5387 8.62547 70.0938 8.32789C70.6622 8.01736 71.3231 7.8621 72.0765 7.8621C72.896 7.8621 73.6098 8.0303 74.2178 8.3667C74.839 8.7031 75.3215 9.17535 75.6651 9.78345C76.0088 10.3786 76.1806 11.0773 76.1806 11.8795V18.6915H73.2066V12.5005C73.2066 12.0865 73.1207 11.7307 72.9489 11.4331C72.7902 11.1355 72.5589 10.9026 72.2549 10.7344C71.9641 10.5662 71.6205 10.4821 71.2239 10.4821C70.8406 10.4821 70.497 10.5662 70.193 10.7344C69.8889 10.9026 69.651 11.1355 69.4792 11.4331C69.3206 11.7307 69.2413 12.0865 69.2413 12.5005V18.6915H66.2673Z" fill="white"></path>
    <path d="M82.617 18.9244C81.5464 18.9244 80.5682 18.6851 79.6826 18.2063C78.8103 17.7276 78.1097 17.0742 77.581 16.2462C77.0655 15.4052 76.8078 14.4542 76.8078 13.3933C76.8078 12.3194 77.0655 11.3684 77.581 10.5403C78.1097 9.71229 78.8103 9.0589 79.6826 8.58018C80.5682 8.10146 81.5464 7.8621 82.617 7.8621C83.6876 7.8621 84.6591 8.10146 85.5315 8.58018C86.4039 9.0589 87.0978 9.71229 87.6133 10.5403C88.142 11.3684 88.4064 12.3194 88.4064 13.3933C88.4064 14.4542 88.142 15.4052 87.6133 16.2462C87.0978 17.0742 86.4039 17.7276 85.5315 18.2063C84.6591 18.6851 83.6876 18.9244 82.617 18.9244ZM82.617 16.3044C83.1589 16.3044 83.6281 16.1815 84.0247 15.9356C84.4344 15.6898 84.7517 15.347 84.9764 14.907C85.2143 14.4671 85.3332 13.9625 85.3332 13.3933C85.3332 12.824 85.2143 12.3258 84.9764 11.8989C84.7517 11.459 84.4344 11.1161 84.0247 10.8703C83.6281 10.6115 83.1589 10.4821 82.617 10.4821C82.0751 10.4821 81.5992 10.6115 81.1895 10.8703C80.7797 11.1161 80.4559 11.459 80.218 11.8989C79.9933 12.3258 79.8809 12.824 79.8809 13.3933C79.8809 13.9625 79.9933 14.4671 80.218 14.907C80.4559 15.347 80.7797 15.6898 81.1895 15.9356C81.5992 16.1815 82.0751 16.3044 82.617 16.3044Z" fill="white"></path>
    <path d="M94.3616 18.9244C93.3042 18.9244 92.3592 18.6786 91.5264 18.1869C90.6937 17.6953 90.0328 17.0289 89.5438 16.1879C89.0679 15.347 88.83 14.4154 88.83 13.3933C88.83 12.3582 89.0745 11.4266 89.5636 10.5986C90.0526 9.75758 90.7135 9.09125 91.5463 8.59959C92.379 8.10793 93.3108 7.8621 94.3418 7.8621C95.1349 7.8621 95.8354 8.0109 96.4434 8.30848C97.0647 8.59312 97.5537 9.00068 97.9106 9.53115L97.4546 10.1134V4H100.429V18.6915H97.6529V16.7508L97.9304 17.3524C97.5603 17.8699 97.0581 18.2646 96.4236 18.5363C95.7892 18.795 95.1018 18.9244 94.3616 18.9244ZM94.7185 16.3044C95.2604 16.3044 95.7363 16.1815 96.146 15.9356C96.5558 15.6898 96.873 15.347 97.0977 14.907C97.3356 14.4671 97.4546 13.9625 97.4546 13.3933C97.4546 12.824 97.3356 12.3194 97.0977 11.8795C96.873 11.4396 96.5558 11.0967 96.146 10.8509C95.7363 10.605 95.2604 10.4821 94.7185 10.4821C94.1766 10.4821 93.6875 10.6115 93.2513 10.8703C92.8284 11.1161 92.4979 11.459 92.26 11.8989C92.0221 12.3258 91.9031 12.824 91.9031 13.3933C91.9031 13.9625 92.0221 14.4671 92.26 14.907C92.4979 15.347 92.8284 15.6898 93.2513 15.9356C93.6875 16.1815 94.1766 16.3044 94.7185 16.3044Z" fill="white"></path>
    <path d="M109.976 18.9244C109.051 18.9244 108.178 18.7627 107.359 18.4392C106.552 18.1028 105.852 17.6306 105.257 17.0225C104.676 16.4144 104.239 15.6963 103.949 14.8682L106.467 13.762C106.837 14.5512 107.346 15.1723 107.993 15.6251C108.654 16.078 109.381 16.3044 110.174 16.3044C110.597 16.3044 110.961 16.2397 111.265 16.1103C111.569 15.9809 111.807 15.8063 111.978 15.5863C112.15 15.3534 112.236 15.0817 112.236 14.7712C112.236 14.4348 112.13 14.1502 111.919 13.9173C111.707 13.6714 111.377 13.4774 110.928 13.335L108.033 12.4035C106.857 12.0283 105.971 11.4978 105.376 10.8121C104.781 10.1134 104.484 9.27886 104.484 8.30848C104.484 7.45455 104.695 6.70412 105.118 6.0572C105.555 5.41028 106.156 4.90569 106.923 4.54341C107.702 4.18114 108.595 4 109.599 4C110.485 4 111.304 4.14879 112.058 4.44637C112.811 4.74396 113.459 5.16445 114.001 5.70787C114.556 6.25128 114.972 6.90466 115.25 7.66803L112.752 8.77426C112.474 8.10146 112.058 7.57746 111.503 7.20225C110.947 6.8141 110.313 6.62002 109.599 6.62002C109.189 6.62002 108.826 6.68471 108.509 6.8141C108.191 6.94348 107.947 7.13109 107.775 7.37692C107.603 7.60981 107.517 7.88151 107.517 8.19203C107.517 8.52843 107.63 8.82601 107.854 9.08478C108.079 9.33061 108.416 9.52468 108.866 9.66701L111.701 10.5598C112.89 10.935 113.776 11.459 114.358 12.1318C114.952 12.8046 115.25 13.6261 115.25 14.5965C115.25 15.4375 115.025 16.1879 114.576 16.8478C114.126 17.4947 113.505 18.0058 112.712 18.381C111.932 18.7433 111.02 18.9244 109.976 18.9244Z" fill="white"></path>
    <path d="M119.68 18.9244C118.9 18.9244 118.226 18.8015 117.658 18.5557C117.09 18.3098 116.653 17.9605 116.349 17.5077C116.045 17.0419 115.893 16.492 115.893 15.858C115.893 15.2629 116.032 14.7389 116.31 14.286C116.587 13.8202 117.01 13.4321 117.579 13.1216C118.16 12.811 118.881 12.5911 119.74 12.4617L123.051 11.9377V14.0725L120.275 14.5577C119.852 14.6353 119.528 14.7712 119.304 14.9653C119.079 15.1464 118.967 15.4116 118.967 15.761C118.967 16.0844 119.092 16.3367 119.343 16.5179C119.594 16.699 119.905 16.7896 120.275 16.7896C120.764 16.7896 121.194 16.6861 121.564 16.4791C121.934 16.272 122.218 15.9939 122.416 15.6445C122.628 15.2823 122.734 14.8876 122.734 14.4607V11.7048C122.734 11.3037 122.568 10.9673 122.238 10.6956C121.921 10.4239 121.484 10.288 120.929 10.288C120.401 10.288 119.931 10.4304 119.522 10.715C119.125 10.9997 118.834 11.3749 118.649 11.8407L116.27 10.7344C116.482 10.1393 116.819 9.62819 117.281 9.20123C117.744 8.77426 118.299 8.44433 118.947 8.21144C119.594 7.97855 120.302 7.8621 121.068 7.8621C121.98 7.8621 122.786 8.02383 123.487 8.34729C124.188 8.67075 124.729 9.1236 125.113 9.70582C125.509 10.2751 125.708 10.9414 125.708 11.7048V18.6915H122.932V16.9837L123.606 16.8672C123.289 17.333 122.938 17.7211 122.555 18.0317C122.172 18.3292 121.742 18.5492 121.266 18.6915C120.791 18.8468 120.262 18.9244 119.68 18.9244Z" fill="white"></path>
    <path d="M128.682 23C128.364 23 128.054 22.9741 127.75 22.9224C127.459 22.8706 127.201 22.7865 126.977 22.6701V20.2829C127.162 20.3347 127.38 20.38 127.631 20.4188C127.882 20.4576 128.113 20.477 128.325 20.477C128.906 20.477 129.323 20.3412 129.574 20.0695C129.825 19.7978 130.03 19.4872 130.189 19.1379L130.922 17.4883L130.882 19.9142L126.124 8.09499H129.316L132.469 16.4985H131.279L134.431 8.09499H137.624L132.984 19.6813C132.693 20.4188 132.336 21.0334 131.913 21.525C131.49 22.0167 131.008 22.3854 130.466 22.6313C129.937 22.8771 129.343 23 128.682 23Z" fill="white"></path>
    <path d="M142.933 18.9244C141.876 18.9244 140.931 18.6786 140.098 18.1869C139.265 17.6953 138.604 17.0289 138.115 16.1879C137.639 15.347 137.401 14.4154 137.401 13.3933C137.401 12.3582 137.646 11.4266 138.135 10.5986C138.624 9.75758 139.285 9.09125 140.118 8.59959C140.95 8.10793 141.882 7.8621 142.913 7.8621C143.706 7.8621 144.407 8.0109 145.015 8.30848C145.636 8.59312 146.125 9.00068 146.482 9.53115L146.026 10.1134V4H149V18.6915H146.224V16.7508L146.502 17.3524C146.132 17.8699 145.629 18.2646 144.995 18.5363C144.361 18.795 143.673 18.9244 142.933 18.9244ZM143.29 16.3044C143.832 16.3044 144.308 16.1815 144.717 15.9356C145.127 15.6898 145.444 15.347 145.669 14.907C145.907 14.4671 146.026 13.9625 146.026 13.3933C146.026 12.824 145.907 12.3194 145.669 11.8795C145.444 11.4396 145.127 11.0967 144.717 10.8509C144.308 10.605 143.832 10.4821 143.29 10.4821C142.748 10.4821 142.259 10.6115 141.823 10.8703C141.4 11.1161 141.069 11.459 140.831 11.8989C140.593 12.3258 140.475 12.824 140.475 13.3933C140.475 13.9625 140.593 14.4671 140.831 14.907C141.069 15.347 141.4 15.6898 141.823 15.9356C142.259 16.1815 142.748 16.3044 143.29 16.3044Z" fill="white"></path>
    <defs>
      <linearGradient id="paint0_linear_257_68" x1="16.4" y1="3.3" x2="10" y2="21.5" gradientUnits="userSpaceOnUse">
        <stop stop-color="#F1CB00"></stop>
        <stop offset="1" stop-color="#FF1F00"></stop>
      </linearGradient>
    </defs>
  </symbol>
</svg>